<svg xmlns="http://www.w3.org/2000/svg" viewBox="0 0 606.78 83.98"><defs><style>.cls-1{fill:#051a37;}</style></defs><title>Believe</title><g id="Layer_2" data-name="Layer 2"><g id="_BACKGROUND_2" data-name=" BACKGROUND 2"><path class="cls-1" d="M0,0H39.13Q49.65,0,54.94,2.58A23,23,0,0,1,63.68,10a19.54,19.54,0,0,1,3.44,11.68q0,14-15.13,18.63,8.73,2,13.1,7.82a20.85,20.85,0,0,1,4.37,12.74,21.85,21.85,0,0,1-7.14,16.29Q55.18,84,39.13,84H0ZM19.63,14.83V33.22H34.51q8.19,0,10.31-3.23a11.26,11.26,0,0,0,2.12-6.18,8.85,8.85,0,0,0-1.75-5.51,7.46,7.46,0,0,0-3.85-2.89,37.07,37.07,0,0,0-8.24-.58Zm0,33.34V68.41h15.1q7.74,0,10.93-2.7a10.05,10.05,0,0,0,.12-14.58q-3.08-3-10.19-3Z"/><path class="cls-1" d="M167.26,16h-40V33.22h31.44V49H127.27V67.37h40V84h-60V0h60Z"/><path class="cls-1" d="M224.2,67.37h33.41V84H204.27V0H224.2Z"/><path class="cls-1" d="M312.53,0V84H292.9V0Z"/><path class="cls-1" d="M414.57,16h-40V33.22H406V49H374.58V67.37h40V84h-60V0h60Z"/><path class="cls-1" d="M514,0,488.66,84H467.52L442.29,0h20.95L480,60.05,497.53,0Z"/><path class="cls-1" d="M606.78,16h-40V33.22h31.44V49H566.79V67.37h40V84h-60V0h60Z"/></g></g></svg>