<svg xmlns="http://www.w3.org/2000/svg" viewBox="0 0 1708.54 241.27"><defs><style>.cls-1{fill:#1e3768;}</style></defs><title>Believe-Text</title><g id="Layer_2" data-name="Layer 2"><g id="Layer_2-2" data-name="Layer 2"><g id="Beleive-Text"><path id="Believe-B" class="cls-1" d="M0,0H112.42q30.22,0,45.42,7.42a66.24,66.24,0,0,1,25.1,21.19q9.9,13.78,9.9,33.56,0,40.1-43.48,53.52,25.09,5.66,37.65,22.46t12.55,36.62q0,27.06-20.5,46.78t-66.64,19.72H0ZM56.39,42.6V95.45H99.16q23.5,0,29.61-9.28t6.1-17.76a25.41,25.41,0,0,0-5-15.83q-5-6.61-11.05-8.3T95.1,42.6Zm0,95.8v58.15H99.78q22.22,0,31.39-7.77T140.35,167a27,27,0,0,0-8.83-20.15q-8.82-8.49-29.27-8.49Z"/><path id="Believe-E" class="cls-1" d="M474.74,46H359.85V95.45h90.32v45.43H359.85v52.67H474.74v47.72H302.4V0H474.74Z"/><path id="Believe-L" class="cls-1" d="M632.56,193.55h96v47.72H575.29V0h57.27Z"/><path id="Believe-I" class="cls-1" d="M880.52,0V241.27H824.13V0Z"/><path id="Believe-E-2" class="cls-1" d="M1167.9,46H1053V95.45h90.33v45.43H1053v52.67h114.9v47.72H995.56V0H1167.9Z"/><path id="Believe-V" class="cls-1" d="M1447.85,0,1375,241.27h-60.75L1241.75,0h60.17l48.27,172.52L1400.46,0Z"/><path id="Believe-E-3" class="cls-1" d="M1708.54,46H1593.65V95.45H1684v45.43h-90.32v52.67h114.89v47.72H1536.2V0h172.34Z"/></g></g></g></svg>