<svg xmlns="http://www.w3.org/2000/svg" viewBox="0 0 803 92"><defs/><defs><style>.cls-1{fill:none;stroke:#000;stroke-miterlimit:10;stroke-width:3px}</style></defs><g id="Layer_2" data-name="Layer 2"><g id="Universe"><g id="Image"><path id="Letter_I-1" d="M22 3v86H2V3z" class="cls-1" data-name="Letter I-1"/><path id="Letter_M" d="M129 89l-21-70v70H91V3h31l15 51 16-51h32v86h-21V19l-21 70z" class="cls-1" data-name="Letter M"/><path id="Letter_A" d="M296 3l27 86h-22l-5-18h-28l-6 18h-17l27-86zm-23 52h18l-9-30z" class="cls-1" data-name="Letter A"/><path id="Letter_G" d="M448 43v46h-9a67 67 0 00-3-10 29 29 0 01-23 11q-17 0-27-12t-9-31q0-20 10-33t27-12q14 0 23 8t11 21l-19 3q-2-16-15-16-8 0-12 7t-5 22q0 13 5 20a15 15 0 0013 7 15 15 0 0010-4q4-3 4-11h-16V43z" class="cls-1" data-name="Letter G"/><path id="Letter_I-2" d="M536 3v86h-20V3z" class="cls-1" data-name="Letter I-2"/><path id="Letter_N" d="M671 3v86h-17l-34-58v3a33 33 0 010 3v52h-15V3h21l30 51-1-6V3z" class="cls-1" data-name="Letter N"/><path id="Letter_E" d="M802 19h-41v18h32v16h-33v19h41v17h-61V3h62z" class="cls-1" data-name="Letter E"/></g></g></g></svg>