<svg xmlns="http://www.w3.org/2000/svg" viewBox="0 0 1784.82 261.7"><defs><style>.cls-1{fill:none;stroke:#000;stroke-linecap:round;stroke-linejoin:round;stroke-width:13px;}</style></defs><title>Imagine-Text_1</title><g id="Layer_2" data-name="Layer 2"><g id="Layer_1-2" data-name="Layer 1"><path class="cls-1" d="M62.89,10.21V251.49H6.5V10.21Z"/><path class="cls-1" d="M284.83,251.49,225.3,54.75V251.49H177.93V10.21h88l42.34,144.41L352.83,10.21h88.29V251.49H384.2V54.75L323.51,251.49Z"/><path class="cls-1" d="M674.36,10.21l75.52,241.28H689.14l-14.86-49.67h-78l-15.13,49.67H531.59L608.92,10.21ZM609.83,157.27H661L635.61,72.61Z"/><path class="cls-1" d="M1022.77,122.45v129H997a189.35,189.35,0,0,0-8-27.75q-25.81,31.45-65.79,31.46-47.22,0-73.48-33.76t-26.26-87.32q0-57.62,28-92.62t76.1-35q40.29,0,65,22.63t30.23,60.27L969,96.47q-6.54-43.83-41.53-43.84-23,0-34.74,20.77T881,132.71q0,37.11,12.73,56.73T930,209.06a41.31,41.31,0,0,0,27.13-9.89Q969,189.27,969,167.53H923.61V122.45Z"/><path class="cls-1" d="M1190.31,10.21V251.49h-56.39V10.21Z"/><path class="cls-1" d="M1490.94,10.21V251.49h-48.22l-94.42-163q.17,6.18.35,8.13a94.76,94.76,0,0,1,.71,10.43V251.49h-44V10.21h60.92l82.08,142.29q-1.06-10.6-1.06-16.08V10.21Z"/><path class="cls-1" d="M1778.32,56.17H1663.43v49.49h90.32v45.43h-90.32v52.67h114.89v47.73H1606V10.21h172.34Z"/></g></g></svg>