<svg xmlns="http://www.w3.org/2000/svg" xmlns:xlink="http://www.w3.org/1999/xlink" viewBox="0 0 750 500"><defs/><defs><radialGradient id="radial-gradient" cx="375" cy="252.6" r="692.3" gradientTransform="matrix(.92247 .38607 -.24708 .59038 92 -42)" gradientUnits="userSpaceOnUse"><stop offset=".4" stop-color="#fafafa"/><stop offset=".6" stop-color="#efefef"/><stop offset=".9" stop-color="#d3d3d3"/><stop offset="1" stop-color="#ccc"/></radialGradient><radialGradient id="radial-gradient-2" cx="121.6" cy="573.7" r="81.9" gradientTransform="matrix(2.32638 2.32638 -.20506 .20506 -255 -189)" gradientUnits="userSpaceOnUse"><stop offset="0" stop-color="#e6e6e2"/><stop offset="0" stop-color="#e6e6e2"/><stop offset=".3" stop-color="#f4f4f2"/><stop offset=".6" stop-color="#fcfcfc"/><stop offset="1" stop-color="#fff"/></radialGradient><radialGradient id="radial-gradient-3" cx="121.6" cy="573.7" r="81.9" gradientTransform="matrix(2.32638 2.32638 -.20506 .20506 -255 -189)" gradientUnits="userSpaceOnUse"><stop offset="0" stop-color="#fff"/><stop offset=".2" stop-color="#fff" stop-opacity=".8"/><stop offset=".5" stop-color="#fff" stop-opacity=".4"/><stop offset=".7" stop-color="#fff" stop-opacity=".2"/><stop offset=".9" stop-color="#fff" stop-opacity=".1"/><stop offset="1" stop-color="#fff" stop-opacity="0"/></radialGradient><radialGradient id="radial-gradient-4" cx="108.1" cy="-1" r="96.5" xlink:href="#radial-gradient-2"/><radialGradient id="radial-gradient-5" cx="108.1" cy="-1" r="96.5" xlink:href="#radial-gradient-3"/><radialGradient id="radial-gradient-6" cx="147.3" cy="-355.9" r="113.9" xlink:href="#radial-gradient-2"/><radialGradient id="radial-gradient-7" cx="147.3" cy="-355.9" r="113.9" xlink:href="#radial-gradient-3"/><radialGradient id="radial-gradient-8" cx="144" cy="-796" r="80.6" xlink:href="#radial-gradient-2"/><radialGradient id="radial-gradient-9" cx="144" cy="-796" r="80.6" xlink:href="#radial-gradient-3"/><radialGradient id="radial-gradient-10" cx="158.2" cy="-1137.1" r="81" xlink:href="#radial-gradient-2"/><radialGradient id="radial-gradient-11" cx="158.2" cy="-1137.1" r="81" xlink:href="#radial-gradient-3"/><radialGradient id="radial-gradient-12" cx="302.6" cy="-525.6" r="100.1" xlink:href="#radial-gradient-2"/><radialGradient id="radial-gradient-13" cx="302.6" cy="-525.6" r="100.1" xlink:href="#radial-gradient-3"/><radialGradient id="radial-gradient-14" cx="340.8" cy="-181.8" r="104.3" xlink:href="#radial-gradient-2"/><radialGradient id="radial-gradient-15" cx="340.8" cy="-181.8" r="104.3" xlink:href="#radial-gradient-3"/><radialGradient id="radial-gradient-16" cx="281.1" cy="109.6" r="65" xlink:href="#radial-gradient-2"/><radialGradient id="radial-gradient-17" cx="281.1" cy="109.6" r="65" xlink:href="#radial-gradient-3"/><radialGradient id="radial-gradient-18" cx="219.5" cy="313.5" r="185" xlink:href="#radial-gradient-2"/><radialGradient id="radial-gradient-19" cx="219.5" cy="313.5" r="185" xlink:href="#radial-gradient-3"/><radialGradient id="radial-gradient-20" cx="228.6" cy="776.7" r="84.3" xlink:href="#radial-gradient-2"/><radialGradient id="radial-gradient-21" cx="228.6" cy="776.7" r="84.3" xlink:href="#radial-gradient-3"/><radialGradient id="radial-gradient-22" cx="357.9" cy="-1513.6" r="80" xlink:href="#radial-gradient-2"/><radialGradient id="radial-gradient-23" cx="357.9" cy="-1513.6" r="80" xlink:href="#radial-gradient-3"/><radialGradient id="radial-gradient-24" cx="333.9" cy="-802.4" r="112.4" xlink:href="#radial-gradient-2"/><radialGradient id="radial-gradient-25" cx="333.9" cy="-802.4" r="112.4" xlink:href="#radial-gradient-3"/><radialGradient id="radial-gradient-26" cx="298.7" cy="-1902.2" r="73.1" xlink:href="#radial-gradient-2"/><radialGradient id="radial-gradient-27" cx="298.7" cy="-1902.2" r="73.1" xlink:href="#radial-gradient-3"/><radialGradient id="radial-gradient-28" cx="190.7" cy="914.3" r="80.6" xlink:href="#radial-gradient-2"/><radialGradient id="radial-gradient-29" cx="190.7" cy="914.3" r="80.6" xlink:href="#radial-gradient-3"/><radialGradient id="radial-gradient-30" cx="270.7" cy="-1786.5" r="64.9" xlink:href="#radial-gradient-2"/><radialGradient id="radial-gradient-31" cx="270.7" cy="-1786.5" r="64.9" xlink:href="#radial-gradient-3"/><radialGradient id="radial-gradient-32" cx="237.2" cy="-1499.7" r="81.5" xlink:href="#radial-gradient-2"/><radialGradient id="radial-gradient-33" cx="237.2" cy="-1499.7" r="81.5" xlink:href="#radial-gradient-3"/><radialGradient id="radial-gradient-34" cx="248.9" cy="-1051.5" r="162.2" xlink:href="#radial-gradient-2"/><radialGradient id="radial-gradient-35" cx="248.9" cy="-1051.5" r="162.2" xlink:href="#radial-gradient-3"/><radialGradient id="radial-gradient-36" cx="293.4" cy="-1420.6" r="105.8" xlink:href="#radial-gradient-2"/><radialGradient id="radial-gradient-37" cx="293.4" cy="-1420.6" r="105.8" xlink:href="#radial-gradient-3"/><clipPath id="clip-path"><path d="M0 0h750v500H0z" class="cls-1"/></clipPath><clipPath id="clip-path-2"><path d="M-133-35h78v595h-78z" class="cls-1" transform="rotate(-45 -94 263)"/></clipPath><clipPath id="clip-path-3"><path d="M143 446L-277 25l33-53 420 421-33 53z" class="cls-1"/></clipPath><clipPath id="clip-path-4"><path d="M-54-228h92v701h-92z" class="cls-1" transform="rotate(-45 -8 122)"/></clipPath><clipPath id="clip-path-5"><path d="M272 338l-496-496 39-62 496 496-39 62z" class="cls-1"/></clipPath><clipPath id="clip-path-6"><path d="M101-262h108v827H101z" class="cls-1" transform="rotate(-45 155 152)"/></clipPath><clipPath id="clip-path-7"><path d="M485 406L-99-179l45-74 585 585-46 74z" class="cls-1"/></clipPath><clipPath id="clip-path-8"><path d="M201-260h77v586h-77z" class="cls-1" transform="rotate(-45 239 33)"/></clipPath><clipPath id="clip-path-9"><path d="M473 213L59-201l33-52 414 414-33 52z" class="cls-1"/></clipPath><clipPath id="clip-path-10"><path d="M304-298h77v589h-77z" class="cls-1" transform="rotate(-45 342 -4)"/></clipPath><clipPath id="clip-path-11"><path d="M578 177L161-239l33-53 416 417-32 52z" class="cls-1"/></clipPath><clipPath id="clip-path-12"><path d="M504 106h95v727h-95z" class="cls-1" transform="rotate(-45 552 469)"/></clipPath><clipPath id="clip-path-13"><path d="M842 693L328 179l40-65 515 514-41 65z" class="cls-1"/></clipPath><clipPath id="clip-path-14"><path d="M520 253h99v758h-99z" class="cls-1" transform="rotate(-45 570 632)"/></clipPath><clipPath id="clip-path-15"><path d="M873 865L337 329l42-68 536 536-42 68z" class="cls-1"/></clipPath><clipPath id="clip-path-16"><path d="M342 292h62v472h-62z" class="cls-1" transform="rotate(-45 373 528)"/></clipPath><clipPath id="clip-path-17"><path d="M562 673L228 339l26-42 334 334-26 42z" class="cls-1"/></clipPath><clipPath id="clip-path-18"><path d="M94-171h176v1344H94z" class="cls-1" transform="rotate(-45 182 501)"/></clipPath><clipPath id="clip-path-19"><path d="M719 914L-232-36l75-120 950 951-74 119z" class="cls-1"/></clipPath><clipPath id="clip-path-20"><path d="M73 249h80v613H73z" class="cls-1" transform="rotate(-45 113 555)"/></clipPath><clipPath id="clip-path-21"><path d="M358 743L-76 310l34-54 434 433-34 54z" class="cls-1"/></clipPath><clipPath id="clip-path-22"><path d="M846 92h76v581h-76z" class="cls-1" transform="rotate(-45 884 382)"/></clipPath><clipPath id="clip-path-23"><path d="M1116 561L706 150l32-51 411 410-33 52z" class="cls-1"/></clipPath><clipPath id="clip-path-24"><path d="M627 85h107v816H627z" class="cls-1" transform="rotate(-45 681 493)"/></clipPath><clipPath id="clip-path-25"><path d="M1007 744L430 167l45-73 577 577-45 73z" class="cls-1"/></clipPath><clipPath id="clip-path-26"><path d="M792-105h69v531h-69z" class="cls-1" transform="rotate(-45 827 161)"/></clipPath><clipPath id="clip-path-27"><path d="M1039 324L664-52l29-47 376 376-30 47z" class="cls-1"/></clipPath><clipPath id="clip-path-28"><path d="M-42 200h77v586h-77z" class="cls-1" transform="rotate(-45 -4 493)"/></clipPath><clipPath id="clip-path-29"><path d="M231 673l-415-414 33-52 414 414-32 52z" class="cls-1"/></clipPath><clipPath id="clip-path-30"><path d="M708-121h62v472h-62z" class="cls-1" transform="rotate(-45 738 114)"/></clipPath><clipPath id="clip-path-31"><path d="M927 259L593-74l27-42 333 333-26 42z" class="cls-1"/></clipPath><clipPath id="clip-path-32"><path d="M562-190h77v592h-77z" class="cls-1" transform="rotate(-45 601 106)"/></clipPath><clipPath id="clip-path-33"><path d="M837 288L419-131l33-53 418 419-33 53z" class="cls-1"/></clipPath><clipPath id="clip-path-34"><path d="M455-314h154V864H455z" class="cls-1" transform="rotate(-45 532 275)"/></clipPath><clipPath id="clip-path-35"><path d="M1003 637L169-196l66-105 833 833-65 105z" class="cls-1"/></clipPath><clipPath id="clip-path-36"><path d="M664-117h100v769H664z" class="cls-1" transform="rotate(-45 714 268)"/></clipPath><clipPath id="clip-path-37"><path d="M1021 504L478-40l42-68 544 544-43 68z" class="cls-1"/></clipPath><linearGradient id="linear-gradient" x1="1103.5" x2="1342.6" y1="32.8" y2="271.9" gradientTransform="rotate(180 535 151)" gradientUnits="userSpaceOnUse"><stop offset="0" stop-color="#fffffc"/><stop offset="1" stop-color="#fff"/></linearGradient><linearGradient id="linear-gradient-2" x1="94.9" x2="-271.7" y1="401.5" y2="24.6" gradientUnits="userSpaceOnUse"><stop offset="0" stop-color="#f2f2f2"/><stop offset="1" stop-color="#fafaf6" stop-opacity=".5"/></linearGradient><linearGradient id="linear-gradient-3" x1="1006.6" x2="1288.3" y1="172.2" y2="453.9" xlink:href="#linear-gradient"/><linearGradient id="linear-gradient-4" x1="214.7" x2="-217.3" y1="285.7" y2="-158.3" xlink:href="#linear-gradient-2"/><linearGradient id="linear-gradient-5" x1="830.3" x2="1162.8" y1="141.9" y2="474.5" xlink:href="#linear-gradient"/><linearGradient id="linear-gradient-6" x1="418.2" x2="-91.7" y1="344.3" y2="-179.8" xlink:href="#linear-gradient-2"/><linearGradient id="linear-gradient-7" x1="770.8" x2="1006.3" y1="263" y2="498.4" xlink:href="#linear-gradient"/><linearGradient id="linear-gradient-8" x1="425.6" x2="64.7" y1="169.2" y2="-201.9" xlink:href="#linear-gradient-2"/><linearGradient id="linear-gradient-9" x1="667.4" x2="904" y1="299.8" y2="536.4" xlink:href="#linear-gradient"/><linearGradient id="linear-gradient-10" x1="529.6" x2="166.9" y1="133" y2="-239.9" xlink:href="#linear-gradient-2"/><linearGradient id="linear-gradient-11" x1="443.9" x2="736.1" y1="-174.9" y2="117.4" xlink:href="#linear-gradient"/><linearGradient id="linear-gradient-12" x1="783" x2="334.9" y1="638.7" y2="178" xlink:href="#linear-gradient-2"/><linearGradient id="linear-gradient-13" x1="422.4" x2="727.1" y1="-337.5" y2="-32.8" xlink:href="#linear-gradient"/><linearGradient id="linear-gradient-14" x1="811.1" x2="343.9" y1="808.2" y2="328" xlink:href="#linear-gradient-2"/><linearGradient id="linear-gradient-15" x1="648.9" x2="838.8" y1="-231.3" y2="-41.5" xlink:href="#linear-gradient"/><linearGradient id="linear-gradient-16" x1="523.1" x2="232.1" y1="638.1" y2="338.9" xlink:href="#linear-gradient-2"/><linearGradient id="linear-gradient-17" x1="750.2" x2="1290.5" y1="-212.4" y2="327.9" xlink:href="#linear-gradient"/><linearGradient id="linear-gradient-18" x1="609.5" x2="-219" y1="814.3" y2="-37.3" xlink:href="#linear-gradient-2"/><linearGradient id="linear-gradient-19" x1="894.6" x2="1140.9" y1="-259.6" y2="-13.3" xlink:href="#linear-gradient"/><linearGradient id="linear-gradient-20" x1="307.7" x2="-70" y1="697.8" y2="309.6" xlink:href="#linear-gradient-2"/><linearGradient id="linear-gradient-21" x1="126.2" x2="359.7" y1="-86.7" y2="146.8" xlink:href="#linear-gradient"/><linearGradient id="linear-gradient-22" x1="1069.2" x2="711.2" y1="517.8" y2="149.8" xlink:href="#linear-gradient-2"/><linearGradient id="linear-gradient-23" x1="305.5" x2="633.6" y1="-199.3" y2="128.8" xlink:href="#linear-gradient"/><linearGradient id="linear-gradient-24" x1="940.6" x2="437.4" y1="683.1" y2="165.9" xlink:href="#linear-gradient-2"/><linearGradient id="linear-gradient-25" x1="188.8" x2="402.3" y1="135.5" y2="349.1" xlink:href="#linear-gradient"/><linearGradient id="linear-gradient-26" x1="995.9" x2="668.5" y1="284.5" y2="-52.1" xlink:href="#linear-gradient-2"/><linearGradient id="linear-gradient-27" x1="1013.5" x2="1249.1" y1="-197.2" y2="38.3" xlink:href="#linear-gradient"/><linearGradient id="linear-gradient-28" x1="182.9" x2="-178.2" y1="629.4" y2="258.2" xlink:href="#linear-gradient-2"/><linearGradient id="linear-gradient-29" x1="283.3" x2="472.9" y1="182.4" y2="371.9" xlink:href="#linear-gradient"/><linearGradient id="linear-gradient-30" x1="888.6" x2="597.9" y1="224.2" y2="-74.5" xlink:href="#linear-gradient-2"/><linearGradient id="linear-gradient-31" x1="408.7" x2="646.6" y1="190.1" y2="428.1" xlink:href="#linear-gradient"/><linearGradient id="linear-gradient-32" x1="789.1" x2="424.3" y1="243.5" y2="-131.6" xlink:href="#linear-gradient-2"/><linearGradient id="linear-gradient-33" x1="417.1" x2="890.8" y1="15.3" y2="488.9" xlink:href="#linear-gradient"/><linearGradient id="linear-gradient-34" x1="906.8" x2="180.6" y1="549.5" y2="-197" xlink:href="#linear-gradient-2"/><linearGradient id="linear-gradient-35" x1="277.2" x2="586.3" y1="26.4" y2="335.4" xlink:href="#linear-gradient"/><linearGradient id="linear-gradient-36" x1="958.6" x2="484.8" y1="446.8" y2="-40.3" xlink:href="#linear-gradient-2"/><style>.cls-1{fill:none}.cls-5{mix-blend-mode:multiply}</style></defs><g style="isolation:isolate"><path id="BACKGROUND" fill="url(#radial-gradient)" d="M0 0h750v500H0z"/><g id="OBJECTS" clip-path="url(#clip-path)"><path d="M750 500H0V0h750z" class="cls-1"/><g clip-path="url(#clip-path-2)"><path fill="url(#radial-gradient-2)" d="M100 403c10-10-68-102-173-208S-271 12-281 22s69 102 174 207S91 412 100 403z"/></g><path fill="url(#linear-gradient)" d="M103 403L-277 25l377 378h3z"/><g clip-path="url(#clip-path-3)"><path d="M100 403c10-10-68-102-173-208S-271 12-281 22s69 102 174 207S91 412 100 403z" style="mix-blend-mode:overlay" fill="url(#radial-gradient-3)"/></g><path fill="url(#linear-gradient-2)" d="M103 403L-277 25l377 378h3z"/><g clip-path="url(#clip-path-4)"><path fill="url(#radial-gradient-4)" d="M221 287c11-11-81-120-205-244s-233-216-244-205S-147-41-23 83s233 215 244 204z"/></g><path fill="url(#linear-gradient-3)" d="M224 288l-448-446 445 445 3 1z"/><g clip-path="url(#clip-path-5)"><path d="M221 287c11-11-81-120-205-244s-233-216-244-205S-147-41-23 83s233 215 244 204z" style="mix-blend-mode:overlay" fill="url(#radial-gradient-5)"/></g><path fill="url(#linear-gradient-4)" d="M224 288l-448-446 445 445 3 1z"/><g clip-path="url(#clip-path-6)"><path fill="url(#radial-gradient-6)" d="M426 346c13-13-96-142-242-288S-91-197-104-184-9-42 137 104s276 255 289 242z"/></g><path fill="url(#linear-gradient-5)" d="M429 347L-99-179l525 525 3 1z"/><g clip-path="url(#clip-path-7)"><path d="M426 346c13-13-96-142-242-288S-91-197-104-184-9-42 137 104s276 255 289 242z" style="mix-blend-mode:overlay" fill="url(#radial-gradient-7)"/></g><path fill="url(#linear-gradient-6)" d="M429 347L-99-179l525 525 3 1z"/><g clip-path="url(#clip-path-8)"><path fill="url(#radial-gradient-8)" d="M431 170c9-9-68-100-171-204S65-214 56-205 123-104 227-1s195 181 204 171z"/></g><path fill="url(#linear-gradient-7)" d="M433 171L59-201l372 371 2 1z"/><g clip-path="url(#clip-path-9)"><path d="M431 170c9-9-68-100-171-204S65-214 56-205 123-104 227-1s195 181 204 171z" style="mix-blend-mode:overlay" fill="url(#radial-gradient-9)"/></g><path fill="url(#linear-gradient-8)" d="M433 171L59-201l372 371 2 1z"/><g clip-path="url(#clip-path-10)"><path fill="url(#radial-gradient-10)" d="M535 134c9-9-68-101-172-205S167-252 158-243s68 101 172 205 196 181 205 172z"/></g><path fill="url(#linear-gradient-9)" d="M537 135L161-239l374 373 2 1z"/><g clip-path="url(#clip-path-11)"><path d="M535 134c9-9-68-101-172-205S167-252 158-243s68 101 172 205 196 181 205 172z" style="mix-blend-mode:overlay" fill="url(#radial-gradient-11)"/></g><path fill="url(#linear-gradient-10)" d="M537 135L161-239l374 373 2 1z"/><g clip-path="url(#clip-path-12)"><path fill="url(#radial-gradient-12)" d="M790 640c11-11-84-125-213-253S335 163 324 174s83 125 212 254 242 224 254 212z"/></g><path fill="url(#linear-gradient-11)" d="M793 641L328 179l462 461 3 1z"/><g clip-path="url(#clip-path-13)"><path d="M790 640c11-11-84-125-213-253S335 163 324 174s83 125 212 254 242 224 254 212z" style="mix-blend-mode:overlay" fill="url(#radial-gradient-13)"/></g><path fill="url(#linear-gradient-12)" d="M793 641L328 179l462 461 3 1z"/><g clip-path="url(#clip-path-14)"><path fill="url(#radial-gradient-14)" d="M818 810c12-12-87-130-221-264S344 312 332 324s88 130 222 264 252 234 264 222z"/></g><path fill="url(#linear-gradient-13)" d="M821 810L337 329l481 481h3z"/><g clip-path="url(#clip-path-15)"><path d="M818 810c12-12-87-130-221-264S344 312 332 324s88 130 222 264 252 234 264 222z" style="mix-blend-mode:overlay" fill="url(#radial-gradient-15)"/></g><path fill="url(#linear-gradient-14)" d="M821 810L337 329l481 481h3z"/><g clip-path="url(#clip-path-16)"><path fill="url(#radial-gradient-16)" d="M527 639c8-7-54-81-138-165S232 329 225 337s54 81 138 164 157 145 164 138z"/></g><path fill="url(#linear-gradient-15)" d="M529 639L228 339l299 300h2z"/><g clip-path="url(#clip-path-17)"><path d="M527 639c8-7-54-81-138-165S232 329 225 337s54 81 138 164 157 145 164 138z" style="mix-blend-mode:overlay" fill="url(#radial-gradient-17)"/></g><path fill="url(#linear-gradient-16)" d="M529 639L228 339l299 300h2z"/><g clip-path="url(#clip-path-18)"><path fill="url(#radial-gradient-18)" d="M622 817c21-21-155-231-393-469S-218-65-239-44s154 231 392 469 448 413 469 392z"/></g><path fill="url(#linear-gradient-17)" d="M627 818L-232-36l854 853 5 1z"/><g clip-path="url(#clip-path-19)"><path d="M622 817c21-21-155-231-393-469S-218-65-239-44s154 231 392 469 448 413 469 392z" style="mix-blend-mode:overlay" fill="url(#radial-gradient-19)"/></g><path fill="url(#linear-gradient-18)" d="M627 818L-232-36l854 853 5 1z"/><g clip-path="url(#clip-path-20)"><path fill="url(#radial-gradient-20)" d="M313 699c10-9-70-105-179-214S-70 297-79 307s70 105 179 213 204 189 213 179z"/></g><path fill="url(#linear-gradient-19)" d="M316 700L-76 310l389 389 3 1z"/><g clip-path="url(#clip-path-21)"><path d="M313 699c10-9-70-105-179-214S-70 297-79 307s70 105 179 213 204 189 213 179z" style="mix-blend-mode:overlay" fill="url(#radial-gradient-21)"/></g><path fill="url(#linear-gradient-20)" d="M316 700L-76 310l389 389 3 1z"/><g clip-path="url(#clip-path-22)"><path fill="url(#radial-gradient-22)" d="M1074 519c10-9-66-100-169-202S711 138 702 147s67 100 170 202 193 179 202 170z"/></g><path fill="url(#linear-gradient-21)" d="M1077 519L706 150l368 369h3z"/><g clip-path="url(#clip-path-23)"><path d="M1074 519c10-9-66-100-169-202S711 138 702 147s67 100 170 202 193 179 202 170z" style="mix-blend-mode:overlay" fill="url(#radial-gradient-23)"/></g><path fill="url(#linear-gradient-22)" d="M1077 519L706 150l368 369h3z"/><g clip-path="url(#clip-path-24)"><path fill="url(#radial-gradient-24)" d="M948 685c13-13-94-140-238-285S438 149 425 162s94 140 238 284 272 252 285 239z"/></g><path fill="url(#linear-gradient-23)" d="M951 686L430 167l518 518 3 1z"/><g clip-path="url(#clip-path-25)"><path d="M948 685c13-13-94-140-238-285S438 149 425 162s94 140 238 284 272 252 285 239z" style="mix-blend-mode:overlay" fill="url(#radial-gradient-25)"/></g><path fill="url(#linear-gradient-24)" d="M951 686L430 167l518 518 3 1z"/><g clip-path="url(#clip-path-26)"><path fill="url(#radial-gradient-26)" d="M1001 286c8-9-61-92-155-186S669-63 660-55s62 91 156 185 176 164 185 156z"/></g><path fill="url(#linear-gradient-25)" d="M1003 286L664-52l337 338h2z"/><g clip-path="url(#clip-path-27)"><path d="M1001 286c8-9-61-92-155-186S669-63 660-55s62 91 156 185 176 164 185 156z" style="mix-blend-mode:overlay" fill="url(#radial-gradient-27)"/></g><path fill="url(#linear-gradient-26)" d="M1003 286L664-52l337 338h2z"/><g clip-path="url(#clip-path-28)"><path fill="url(#radial-gradient-28)" d="M188 631c9-10-67-101-171-205s-195-180-204-171 67 101 171 205 195 180 204 171z"/></g><path fill="url(#linear-gradient-27)" d="M191 631l-375-372 372 372h3z"/><g clip-path="url(#clip-path-29)"><path d="M188 631c9-10-67-101-171-205s-195-180-204-171 67 101 171 205 195 180 204 171z" style="mix-blend-mode:overlay" fill="url(#radial-gradient-29)"/></g><path fill="url(#linear-gradient-28)" d="M191 631l-375-372 372 372h3z"/><g clip-path="url(#clip-path-30)"><path fill="url(#radial-gradient-30)" d="M893 225c7-7-54-81-138-164S598-84 591-77 645 4 728 88s157 145 165 137z"/></g><path fill="url(#linear-gradient-29)" d="M895 226L593-74l300 299 2 1z"/><g clip-path="url(#clip-path-31)"><path d="M893 225c7-7-54-81-138-164S598-84 591-77 645 4 728 88s157 145 165 137z" style="mix-blend-mode:overlay" fill="url(#radial-gradient-31)"/></g><path fill="url(#linear-gradient-30)" d="M895 226L593-74l300 299 2 1z"/><g clip-path="url(#clip-path-32)"><path fill="url(#radial-gradient-32)" d="M794 245c10-10-68-102-172-207S424-144 415-135 483-33 588 72s197 182 206 173z"/></g><path fill="url(#linear-gradient-31)" d="M797 245L419-131l375 376h3z"/><g clip-path="url(#clip-path-33)"><path d="M794 245c10-10-68-102-172-207S424-144 415-135 483-33 588 72s197 182 206 173z" style="mix-blend-mode:overlay" fill="url(#radial-gradient-33)"/></g><path fill="url(#linear-gradient-32)" d="M797 245L419-131l375 376h3z"/><g clip-path="url(#clip-path-34)"><path fill="url(#radial-gradient-34)" d="M917 552c19-19-135-202-344-411S181-221 163-203 298-1 507 208s392 362 410 344z"/></g><path fill="url(#linear-gradient-33)" d="M922 553L169-196l748 748 5 1z"/><g clip-path="url(#clip-path-35)"><path d="M917 552c19-19-135-202-344-411S181-221 163-203 298-1 507 208s392 362 410 344z" style="mix-blend-mode:overlay" fill="url(#radial-gradient-35)"/></g><path fill="url(#linear-gradient-34)" d="M922 553L169-196l748 748 5 1z"/><g clip-path="url(#clip-path-36)"><path fill="url(#radial-gradient-36)" d="M966 448c12-12-89-132-225-268S485-56 473-44s89 132 225 268 256 236 268 224z"/></g><path fill="url(#linear-gradient-35)" d="M969 449L478-40l488 488 3 1z"/><g clip-path="url(#clip-path-37)"><path d="M966 448c12-12-89-132-225-268S485-56 473-44s89 132 225 268 256 236 268 224z" style="mix-blend-mode:overlay" fill="url(#radial-gradient-37)"/></g><path fill="url(#linear-gradient-36)" d="M969 449L478-40l488 488 3 1z"/></g></g></svg>