<svg xmlns="http://www.w3.org/2000/svg" viewBox="0 0 1922 1079.26"><defs><style>.cls-1{fill:#fff;stroke:#000;stroke-miterlimit:10;}</style></defs><title>rectangle</title><g id="Layer_2" data-name="Layer 2"><g id="Splash"><path class="cls-1" d="M181.5,1078.76l284-1,255,1h658l542-5,1-314-1-268,1-491s-334-.22-334,0-97.82.65-98,0c-.28-1-155.69,1.21-156,1-.6-.39-137,0-137,0s-114.32.27-114,0c.56-.46-72.36.22-72,0s-191.78-.08-191,0c.23,0-84.87,1.38-85,1-.31-.89-385,0-385,0S1,2.84,1.5,2.76s-1,92-1,92v377l1,200v407Z"/></g></g></svg>