<svg xmlns="http://www.w3.org/2000/svg" viewBox="0 0 1240 661"><defs/><defs><radialGradient id="radial-gradient" cx="622.8" cy="34" r="515.2" gradientUnits="userSpaceOnUse"><stop offset="0" stop-color="#fff"/><stop offset="1" stop-color="#fff" stop-opacity="0"/></radialGradient><linearGradient id="linear-gradient" x1="619.9" x2="619.9" y1="537.1" y2="33.9" gradientUnits="userSpaceOnUse"><stop offset="0" stop-color="#006ab6"/><stop offset="0" stop-color="#0071b9"/><stop offset=".3" stop-color="#009ac9"/><stop offset=".6" stop-color="#00b8d4"/><stop offset=".8" stop-color="#00cadb"/><stop offset="1" stop-color="#00d1de"/></linearGradient><clipPath id="clip-path"><path fill="none" d="M995 536H268c-3 0-19 2-22 0-6-5-1-50-1-59V80c0-11-3-29 0-39 3-7-2-2 4-5 7-3 21 0 28 0h469c79 0 161-5 241 0 3 0 7-1 8 1 3 4 0 25 0 30v469z"/></clipPath><style>.cls-6{fill:#49b4ce}.cls-7{fill:#109cbf}.cls-8{opacity:.3}.cls-9{fill:#fff}.cls-10{fill:#0771af}.cls-11{fill:#00598e}</style></defs><g id="Layer_2" data-name="Layer 2"><g id="_BACKGROUND_2" clip-path="url(#clip-path)" data-name="BACKGROUND 2"><path fill="url(#linear-gradient)" d="M995 536H268c-3 0-19 2-22 0-6-5-1-50-1-59V80c0-11-3-29 0-39 3-7-2-2 4-5 7-3 21 0 28 0h469c79 0 161-5 241 0 3 0 7-1 8 1 3 4 0 25 0 30v469z"/><path fill="url(#radial-gradient)" d="M995 536H268c-3 0-19 2-22 0-6-5-1-50-1-59V80c0-11-3-29 0-39 3-7-2-2 4-5 7-3 21 0 28 0h469c79 0 161-5 241 0 3 0 7-1 8 1 3 4 0 25 0 30v469z" opacity=".9"/><path d="M850 210c-3-9 11-4 2-12-2-2-21-7-9-13-9 0-2-4-6-6-3-3-11-5-15-5h-11c-5-3-4-9-11-9a14 14 0 014 13c-4-5-7-11-14-10l1 5c-5-1-10-5-14-2 12 1 7 32 1 39-7 8-9 5-20 1-8-4-11-6-17-12h7v-2c-14 1-5-14-3-21-5 5-3 21-15 21v2h4c-4 4-8-1-13 5-3 4-2 11-2 16l-12-4-1 2c4 2 2 10-3 10 0 3-5 18-7 20-5 5-10 1-18-1-2 10-5 13-8 20-1 3-2 12-5 15l-11 1c2-8-8-19-17-20-12-2-13 13-23 13-8 0-22-10-30-12s-16-3-25-7c-3 11-8 19-10 4-1-6 1-8-3-12-3-3-11-5-15-7-2 5-3 11-7 12-4 0-14-5-17-7a294 294 0 0128 102c2 17 0 23-8 38l149-6 107-4 40-2c7 0 17 1 23-1s9-15 7-23c-2-7-9-2-14-7s-1-25-2-33l4 1c1-3 5-12 4-14-1-3-7-4-8-6-1-1 3-5 2-6s-6-2-6-4c-1-2 2-6 3-8l14-64zm-319 46l-3-1 4-10c10 1 4 9 2 15zm5 7c0-4 3-10 4-14 10 1 4 10 1 16l-5-2zm11 5c-6-3-2-6 0-11zm25 0c-5 1-4 5-10 3s-3-5-2-11l15 5zm104-5l3-13h2c-1 4-2 11-5 13zm4 0c1-5 1-12 5-12-1 5-1 12-5 12zm4 0c1-4 1-11 5-11-1 5 0 11-5 11zm7 1c-4-1-1-11 3-10zm17-36l3-9c5 2 3 11-3 9zm9 2l-3-1a26 26 0 012-8h3l-2 9zm10-9c-7-1-5-7-5-13 9 1 5 7 5 13zm12-28l4 3a35 35 0 01-8 0zm3 28c-3 1-5 0-6 4-5-9 9-15 6-4zm6 3c-3-2-4-2-2-6 4 0 3 2 2 6zm3 3l2-6 4 1a20 20 0 01-2 6zm9 3c-3-1-3-4-1-7 4 1 3 3 1 7zm6 1h-3a20 20 0 012-6l4 2-3 4zm56-56c10 3 19 4 9 13l-5-4-2-6c-3-1-6-3-8 2a25 25 0 01-5-5zm-20 12c8 3 42 10 36 20l-39-14 3-6zm6 10c11 3 9 5 6 14l-10-4zm-5 10c-3-3 1-10 4-10zm15-6c3 3 0 7-1 11h-2zm3 1c10 3 8 5 6 14-11-4-9-4-6-14zm10 4c3 2 0 7-2 11l-2-1zm-33-12l6 2-4 10a28 28 0 01-8-3zm-6-17c0 6 1 11-3 15l-5-18 8 3zm-9-1c3 8 8 17 1 23zm7 65c-4-1-5-4-4-8a22 22 0 017 2l-3 6zm-6-19c4-9 4-12 13-7-3 8-3 11-13 7zm14-7a17 17 0 002 1l-4 9h-2zm8 32c-6-2-13-3-9-11 6 3 13 3 9 11zm-9-21c1-2 2-8 4-9 1-1 9 1 10 2l-3 10c-2 1-9-3-11-3zm12 3l3-9a8 8 0 002 0c-1 4-1 9-5 9zm6-8c10 3 9 2 6 12l-9-3zm2 112a59 59 0 012-8c2 4 4 7 4 11l-6-3zm3-9l7 3a21 21 0 01-3 6zm4 12c2-5 2-11 9-7-3 3-6 6-9 7zm-3-12c2-1 5-1 6-3l-11 3c3-8 3-13 10-14 13-3 10 9 9 19zm5-25l4 5a20 20 0 01-6 0l2-6zm1-3c3-1 8 2 5 7l-5-7zm1-2c2-2 8-2 6 3l-6-3zm-3-60l3-9c7 1 3 6 2 11l-5-2zm-1 0c-3-2 0-6 1-10l2 1zm-8 91c3 0 2 3 0 7-3-2-2-4 0-7zm12 13l-2-1c8-8 11-11 8 4l-6-3zm12-27c-5-2-9-7-6-12 8 2 10 5 6 12zm4-14l-2 5c-4-1-8-3-6-8l8 3zm-6-11l-3 7a19 19 0 01-6-2 23 23 0 013-8l6 3zm-5-60l-44-15c2-11 18 1 24 4 5 1 23 4 20 11zm-3-9l4-10c6 1 2 7 1 12zM573 159c1-5 2-12 1-16 0 1 5-5 1-4-4 0-10 10-10 14-10-7-25-7-33-14-8-5-2-12-3-18-1-3 2-4 0-5-4-1-12 8-13 10-7 7-7 8-17 9a173 173 0 00-69 19c-25 14 1 17 15 15 1-1-4 0-1 1a3 3 0 01-2-1s0 3-2 2c4 7 18 6 26 6h19c2 1 3 5 6 5 9 0 1-2 5-5 13-8 28-9 43-10l3 3c2 0 2-3 4-3h10a44 44 0 00-6-3 18 18 0 0111 1l-2-3 3 1c2-8 14 15 20 17a56 56 0 01-9-21zM782 140a11 11 0 005-3l-9-3c-1-5-10-1-13 1-4 1-4-2-6-3-2 0-1 1 0 2l-3 5c3-1 6-2 9 0h-1a2 2 0 010 2l13-1c-2 0-2 5 0 3 0-4 2-3 5-3zm-16-5zm0 0zm7-1zm4 0zm-1 0zm-3 0zm-7 1h-1zm2 5zm-3-1zm1 0zm0 0zm1 0zm0 0zm1 0zm9 1zM837 121a17 17 0 008-4 2 2 0 00-2 0l1-1c-4 0-9-3-14-4 0-9-7 0-10 0-5 1-5-6-10 1l1 1c-6 1-6-3-10-5-3 0-3-1 0 2-1 2-2 0 0 2l-4 7c5-1 8-3 14-1l-2 1a3 3 0 011 3c5-3 11-1 19-1-3 0-2 7 0 4 1-6 3-4 8-5zm-24-7zm0 0a5 5 0 01-1 0 5 5 0 001 0zm11-2zm5 0zm-1 0zm-5 0zm-11 2h-1zm4 7zm-5-2l1 1zm1 1zm1 0zm0 0h1zm1 0zm1 1zm15 1zM902 194a11 11 0 005-2c-1-2-4-3-9-3 0-5-10-2-13 0l1 1c-4 0-4-2-7-3-2 0-1 1 0 2l-2 5c3-1 6-2 9-1h-2a2 2 0 011 3c4-2 6-1 12-1-1 0-1 4 1 3 0-4 1-3 4-4zm-15-4zm0 0a3 3 0 01-1 0 3 3 0 001 0zm7-1zm3 0zm0 0zm-4 0zm-7 1zm3 4zm-3-1zm0 0l1 1zm1 1zm0 0h1zm1 0zm0 0h1zm10 1zM972 80a11 11 0 005-2c-2-2-5-3-9-4-1-5-10-1-13 1-4 1-4-1-7-3-1 1-1 1 1 3l-3 4h8a2 2 0 010 2l13-1c-2 1-2 5 0 3 0-3 2-2 5-3zm-16-5zm0 0zm7-1zm4 0zm-1 0zm-3 0zm-7 1h-1zm2 5zm-3-1zm1 0zm0 0zm1 0zm0 0zm1 1zm9 0zM255 129a11 11 0 006-2c-2-2-5-3-10-3 0-5-9-2-13 0l1 1c-4 0-4-2-7-4-2 1-1 2 0 3l-2 5c3-2 6-2 9-1h-2a2 2 0 011 2h13c-2 0-2 4 0 2 0-3 1-2 4-3zm-15-5zm0 0zm7-1zm4 0zm-1 0zm-4 0zm-7 1zm3 5zm-3-1zm1 0zm0 0zm0 1h1zm1 0zm0 0h1zm10 1zM296 94a17 17 0 008-3 2 2 0 00-2-1l1-1c-4 0-9-3-14-3 0-10-7-1-10 0-5 1-6-7-10 1h1c-6 1-6-2-10-5-3 0-3 0 0 3-1 1-2-1 0 1l-4 8c5-2 8-4 14-1h-2a3 3 0 011 3c5-2 11 0 19-1-3 0-2 7 0 4 1-5 3-4 8-5zm-24-7zm0 0a4 4 0 01-1 0 4 4 0 001 0zm11-2zm5 0zm-1 0zm-5 0zm-11 2h-1zm4 7zm-5-1zm1 0zm1 0zm0 0l1 1zm1 1zm1 0zm15 1zM361 168a11 11 0 005-3l-9-3c0-5-10-1-13 1h1c-4 0-4-2-7-3-2 0-1 1 0 2l-2 5c3-1 6-2 9-1l-2 1a2 2 0 011 2c4-2 6-1 12-1-1 0-1 5 1 3 0-4 1-3 4-3zm-15-5zm0 0a3 3 0 01-1 0 3 3 0 001 0zm7-1zm3 0zm0 0zm-4 0zm-7 1zm3 4zm-3 0zm0 0h1zm1 0zm0 0zm1 0zm0 0zm10 1zM431 59a11 11 0 005-2c-2-2-5-3-9-3-1-5-10-2-13 0v1c-4 0-4-2-6-4-2 1-1 2 0 3-1 1-3 3-3 5 3-2 6-2 9-1h-1a2 2 0 010 2h13c-2 0-2 4 0 2 0-3 2-2 5-3zm-16-5zm0 0zm7-1zm4 1zm-1-1zm-3 0zm-7 1h-1zm2 5zm-3-1h1zm1 0zm0 0zm1 1zm0 0zm1 0zm9 1z" class="cls-6"/><path d="M951 256c-18 4-11 25-23 33-16 9-31-6-46-2-11 3-23 16-29 26-3 5-7 12-11 14-6 3-19 1-25 2-5 0-16-2-20 1-9 5-6 13-17 16-20 6-42-4-59 6-8 5-15 9-25 10-9 2-11 1-17 8-3 4-8 14-12 16-5 3-15-1-20-2-9-1-8-1-14 5-7 8-5 11-15 13-5 1-17-2-21 1-4 2-2 5-5 8-4 4-6 5-13 2-5-3-10-10-15-14-7-5-8-4-17-5a31 31 0 01-28-23c-4-13-5-30-18-36-5-3-15-1-20-5-3-3-6-14-7-19-2-9 1-13-7-21a147 147 0 00-21-17c-12-8-25-4-36-11-15-10-25-30-44-32-9 0-17 2-26-2l-18-13c-3-2-8-7-12-8-5-1-1 0-6 1-4 1-7 5-11 5l-12-4c-12-3-12-2-19-10-5-6-9-11-17-13v307c0 6-4 37 0 42 2 2 11 1 14 1h715c3 0 19 2 21 0 4-3 0-28 0-32V236c-7 1-13 10-20 14-7 3-17 4-24 6z" class="cls-7"/><path d="M708 322s9-16 13-17c-2 1-11 17-13 17zM689 331c4 0 14-24 18-26 2-1-8 14-9 15-2 2-6 11-9 11zM708 339c-5 0 6-19 6-16 0 0-8 16-6 16zM716 330c-2 0 6-11 8-10l-8 10zM710 341l9-5c1 3-7 5-9 5zM706 351c-2 0 7-6 7-3l-7 3z" class="cls-7"/><path d="M693 366s27-41 28-40-26 40-28 40zM686 342c-1 0-1-35 3-35-3 0-2 35-3 35zM703 322c3 0 8-17 11-17-1 0-5 17-11 17z" class="cls-7"/><path d="M703 323l-8-1 19-2c2 2-12 3-11 3z" class="cls-7"/><path d="M685 345c-2 0 14-26 17-20-2-3-16 20-17 20z" class="cls-7"/><path d="M695 362l-12-19c-1-4 0-40 1-40v39c1 2 13 20 11 20z" class="cls-7"/><path d="M689 339c-3 0-1-32 8-31-6-1-9 31-8 31zM684 330c-3 0-13-17-12-17l12 17z" class="cls-7"/><path d="M681 326l-7-20c3 1 8 20 7 20z" class="cls-7"/><path d="M683 324c-3 0-6-18-6-20l6 20zM682 311l-3-10 3 10zM681 306c-1 0-6-6-4-6l4 6zM692 315c-2 0 0-9 2-8l-2 8zM697 320l3-12-3 12zM702 314l2-8c1 1-1 8-2 8zM703 322c0 1 4-13 6-13 0 0-4 13-6 13zM716 311c-2 0 2-8 3-8l-3 8zM710 313c-2 0 1-9 2-9 2 1-1 9-2 9zM708 322c-2 0 16-12 16-9l-16 9z" class="cls-7"/><path d="M714 318c-1 0 3-7 4-5l-4 5zM716 326l5-11c2 0-3 11-5 11z" class="cls-7"/><path d="M716 333c0-2-2-14 1-16l-1 16zM721 324c-3 0 5-5 4-1l-4 1z" class="cls-7"/><path d="M710 331c-2 0 4-7 4-6 3 1-4 6-4 6zM709 331c-1 0-2-8 0-8v8zM711 339l3-10c1-1-1 10-3 10zM706 348c-3 0 2-16 5-15l-5 15zM697 347s6-15 8-15c0 0-6 15-8 15zM696 350c2 0 9-13 9-13 1 0-3 13-9 13z" class="cls-7"/><path d="M701 355c-2 0 3-9 4-8s-4 8-4 8z" class="cls-7"/><path d="M700 358l1-11c2 0 0 11-1 11zM696 362v-29s2 29 0 29zM688 350l5-13c1 1-4 13-5 13zM689 349v-9 9z" class="cls-7"/><path d="M691 344c-3 0 3-5 3-2l-3 2zM696 343c-2 0 5-13 6-11l-6 11z" class="cls-7"/><path d="M695 339l3-6c2 0-2 6-3 6zM693 333c-3 0 12-6 11-3l-11 3zM697 329c-2 0 7-4 8-3 2 2-9 3-8 3zM699 327l1-4-1 4zM698 323l3-5c2 0-2 5-3 5z" class="cls-7"/><path d="M702 339c-2 0 3-15 6-13l-6 13zM700 348c-1 0 2-8 3-7s-2 7-3 7zM696 350c-1 0-5-6-3-6 1 0 5 6 3 6zM696 357c-2 0-5-8-4-8s6 8 4 8z" class="cls-7"/><path d="M697 355c-2 0 1-5 2-4s-2 4-2 4zM693 366l-10-15c-2-2-9-26-6-26l7 25c1 2 11 16 9 16z" class="cls-7"/><path d="M679 336l2-8c2 0-1 8-2 8zM684 351c-2 0-3-7-2-7 2 0 3 7 2 7zM688 357l-1-6c1 0 3 6 1 6zM692 362l-1-6 1 6zM668 326c-3 0-3-19-2-19l2 19z" class="cls-7"/><path d="M667 329l3-16c3 0-1 16-3 16z" class="cls-7"/><path d="M679 342c-3 0-16-19-15-19 2-1 14 19 15 19zM679 339c-2 0-8-12-8-12 2 0 9 12 8 12zM676 334l-1-8 1 8zM669 330l5-9-5 9zM671 326l1-7-1 7zM678 316c-2 0-7-6-6-6l6 6zM679 320c-1 0-5-2-4-3 1-3 6 3 4 3zM669 323c-2 0-1-12 0-12s1 12 0 12zM666 314c-1 0 3-9 4-8l-4 8zM693 327c-2 0 1-13 2-13l-2 13zM694 331l3-7c2 0-2 7-3 7zM687 318c-3 0 4-7 4-6 0 2-3 6-4 6z" class="cls-7"/><path d="M688 315l-2-8c1-1 3 8 2 8zM686 339c-1 0-3-5-2-6 2 0 3 6 2 6z" class="cls-7"/><path d="M683 343l2-7c1 1-1 7-2 7zM689 351c-2 0-4-3-4-4 1-1 5 4 4 4zM681 348c-1 0-13-11-10-12l10 12z" class="cls-7"/><path d="M678 346c-1 0-12-8-10-9 0 0 12 9 10 9zM819 312c-3 0 12-11 13-12l8-16c4-1-5 15-6 16l-15 12zM828 322c-4 0 3-11 3-10 2-3 6-3 9-4 6-4 9-6 10-12 3 0-4 10-3 9-3 3-7 3-10 5-2 1-11 12-9 12zM830 331c-3 0 11-11 13-12 4-2 6-2 10-6 1-2 1-8 3-8 3 0-4 11-4 11-2 3-6 2-9 4-3 1-12 11-13 11z" class="cls-7"/><path d="M830 331s-10-24-8-24c1 0 10 24 8 24z" class="cls-7"/><path d="M818 323c-3 0 4-24 6-28 0-1 14-21 10-21 8 0-8 19-7 18-3 4-11 31-9 31z" class="cls-7"/><path d="M822 301c-4 0-20-22-16-22-2 0 15 22 16 22zM819 315l-16-11c-5-4-8-4-11-9 0-1-6-10-3-10-3 0 10 15 11 16s22 14 19 14zM825 331l-10-9-14-6c-5-2-11-4-15-9 0-1-6-14-3-14 3 14 10 18 22 24l14 5c1 1 8 9 6 9zM852 316l1-12-1 12zM849 318c-2 0 2-14 2-14l-2 14zM846 314l2-8c2-1-1 8-2 8zM847 318l-2-10 2 10zM845 319l-2-9 2 9zM842 320c-2 0-1-8-1-8l1 8zM840 321c-2 0-2-9-2-9l2 9zM838 322c-3 0-3-9-3-9l3 9zM836 323c-2 0-3-9-2-9l2 9zM833 326c-1 0-3-8-2-9l2 9zM844 307l3-11c2 0-3 11-3 11zM842 308l3-11-3 11zM840 309c-1 0 1-12 3-12l-3 12zM840 307v-10 10zM839 309l-1-10 1 10zM837 310c-2 0-2-9-2-9l2 9zM835 310l-3-7 3 7zM826 318c-2 0 5-10 4-10s-3 10-4 10zM824 316s3-9 5-9l-5 9zM823 314l4-8s-2 8-4 8zM823 312l2-5-2 5zM837 297l1-12-1 12zM835 299c-2 0 0-12 0-12v12z" class="cls-7"/><path d="M835 295c-2 0-2-7-1-7l1 7zM833 301c-2 0-2-12-1-12l1 12zM830 302v-11 11zM830 299l-2-7 2 7zM828 303l-2-9 2 9zM827 305l-2-6 2 6zM825 305l-1-3 1 3zM834 285c-3 0-4-10-3-9l3 9zM831 287c-2 0-3-12-2-12l2 12z" class="cls-7"/><path d="M829 282c-1 0-4-6-2-6l2 6zM830 288l-3-7 3 7zM827 291c-2 0-4-13-2-13l2 13zM826 287v-8 8zM821 297l1-12-1 12zM819 296l1-12-1 12zM819 293l-3-9 3 9zM816 294l-1-10 1 10zM814 294l-1-11 1 11zM811 292v-11 11zM809 290l-1-9 1 9zM809 285l1-5-1 5zM815 310c2 0 4-11 5-11 0 0-2 11-5 11z" class="cls-7"/><path d="M817 308c-2 0-1-8-1-8l1 8zM811 307l5-10s-3 10-5 10zM813 308l1-12-1 12zM808 305l5-10s-3 10-5 10zM806 304l4-10s-2 10-4 10zM809 304l-1-9 1 9zM803 303l4-10c0 1-2 10-4 10zM805 300v-8 8zM801 302l3-11c1 0-1 11-3 11zM799 301l3-10c1 0-1 10-3 10z" class="cls-7"/><path d="M801 299c-2 0-2-9-1-9l1 9zM796 300l2-11-2 11zM797 296v-8 8zM794 297l1-10-1 10zM794 295c-2 0-1-8-1-8l1 8zM791 292l1-6-1 6zM792 289l-1-4 1 4zM816 322l-1-11 1 11zM813 321l-1-11 1 11zM808 319l-1-11 1 11zM813 318c-2 0-5-9-4-9l4 9zM808 314c-3 0-4-9-5-9l5 9zM804 317l-4-13c2 0 5 13 4 13z" class="cls-7"/><path d="M804 314c-4 0-7-10-6-10 0 0 4 10 6 10zM797 315l-1-13c1-1 2 13 1 13zM797 313l3-7-3 7zM795 313c1 0-4-15-2-15l2 15z" class="cls-7"/><path d="M793 312c-2 0-2-15-1-15l1 15zM790 311v-16 16zM790 305c-2 0-3-11-3-11l3 11zM786 307v-14 14zM784 302l1-9-1 9zM543 378c-3 0 11-11 13-12l8-16c4-1-5 15-6 16l-15 12zM551 388c-3 0 4-11 4-10 2-3 6-3 9-4 5-4 9-6 10-12 7 0-13 14-13 14l-10 12zM554 397c-3 0 11-12 12-12 8-4 12-5 14-15 3 0-4 12-4 12l-9 4c-3 1-12 11-13 11z" class="cls-7"/><path d="M554 397s-10-24-8-24l8 24z" class="cls-7"/><path d="M542 389c-3 0 3-24 5-28 1-1 15-21 10-21 9 0-7 19-6 18-3 4-11 31-9 31z" class="cls-7"/><path d="M546 367c-5 0-20-22-17-22-1 0 15 22 17 22zM543 381l-16-11c-5-4-8-4-11-10 0 0-6-9-3-9-3 0 10 15 11 16s21 14 19 14zM549 397l-10-9-14-6c-5-2-11-4-15-9-1-1-6-14-3-14 2 14 9 18 22 23 4 2 10 3 13 6 2 1 9 9 7 9zM576 382l1-12-1 12zM573 384c-2 0 2-14 2-14l-2 14zM570 380l2-8-2 8zM571 384l-2-10 2 10zM569 385l-2-9a94 94 0 012 9zM566 386c-2 0-2-8-2-8l2 8zM564 386c-2 0-3-8-3-9l3 9zM561 388c-2 0-2-9-2-9l2 9zM559 389l-1-9 1 9zM557 392c-1 0-3-8-2-9l2 9zM568 373l3-11c2 0-3 11-3 11zM566 374c-1 0 1-11 3-11l-3 11zM564 375l2-12-2 12zM564 373v-10 10zM563 375l-1-10 1 10zM561 376c-2 0-2-9-2-9l2 9zM559 376l-3-7 3 7zM549 384l5-10s-3 10-5 10zM548 382l4-9-4 9zM547 380l4-8s-2 8-4 8zM546 378l3-5-3 5zM561 363v-12 12zM558 365l1-12-1 12zM558 361l-1-7 1 7zM557 367c-2 0-2-12-1-12l1 12zM554 368v-11 11zM554 365l-2-7 2 7zM552 369c-2 0-2-9-2-9l2 9zM551 371l-3-6c2 0 3 6 3 6zM549 371l-1-3 1 3zM557 351c-2 0-3-10-2-10l2 10zM555 353c-3 0-3-12-2-12l2 12z" class="cls-7"/><path d="M553 347l-3-5c2 0 4 5 3 5zM554 354l-3-7 3 7zM551 357c-2 0-4-13-3-13l3 13zM550 353v-8 8zM545 363l1-12-1 12zM542 362l1-12c1 0 1 12-1 12z" class="cls-7"/><path d="M543 359c-2 0-4-9-3-9l3 9zM540 360c-2 0-2-10-2-10l2 10zM538 360c-2 0-2-11-1-11l1 11zM535 357c-2 0-1-10 0-10v10zM533 356l-1-9 1 9zM533 351l1-5-1 5zM539 376l4-11s-1 11-4 11z" class="cls-7"/><path d="M541 374c-2 0-1-8-1-8l1 8zM534 372c2 0 5-9 6-9 0 0-3 9-6 9zM537 374l1-12-1 12zM532 371l5-10s-3 10-5 10zM529 370c2 0 4-10 5-10 0 0-2 10-5 10zM533 370l-1-9 1 9zM527 369l4-10s-2 10-4 10zM529 366v-8 8zM525 368l3-11c1 0-1 11-3 11zM523 367l3-10c1 0-1 10-3 10zM524 365v-10 10zM520 365l2-10-2 10zM521 362l-1-8 1 8zM518 363l1-10-1 10zM518 361c-2 0-2-9-1-8l1 8zM515 358l1-6-1 6zM515 355l-1-4 1 4zM539 388v-11 11zM537 387l-1-11 1 11zM531 384v-10 10zM537 384c-2 0-5-9-4-9l4 9zM532 380c-3 0-5-9-5-9 1 0 3 9 5 9zM528 383l-4-13c2 0 5 13 4 13z" class="cls-7"/><path d="M528 380c-4 0-7-10-7-10 1 0 5 10 7 10zM521 380l-1-13 1 13z" class="cls-7"/><path d="M521 379l2-7c2 0-1 7-2 7zM519 379s-4-15-2-15l2 15zM517 378c-3 0-2-15-2-15l2 15zM514 377v-16 16zM513 371l-2-11 2 11zM510 373v-14 14zM508 368l1-9-1 9zM963 259c-15 0-27-38-24-38l7 23 17 15z" class="cls-7"/><path d="M956 255c-3 0-12-42-12-42 3 0 12 42 12 42zM953 225c-4 0-4-25-5-25 3 0 4 25 5 25z" class="cls-7"/><path d="M954 250l-2-53c2 5 4 53 2 53z" class="cls-7"/><path d="M954 234c4 0 0-31 3-31-1 0 5 31-3 31z" class="cls-7"/><path d="M967 237c-1-2-9-17-8-18 2 0 7 12 8 13 1-2 18-28 16-28 4 0-16 29-16 33z" class="cls-7"/><path d="M963 259c-3 0 2-25 3-25s-1 25-3 25z" class="cls-7"/><path d="M963 256c2 0 21-33 21-33 3 0-15 33-21 33z" class="cls-7"/><path d="M973 245c3 0 15-20 14-20 2 0-5 20-14 20zM971 228c-1 0-3-32-1-33 1 0 3 33 1 33z" class="cls-7"/><path d="M971 222c-6 0-4-18-4-18 2 1 3 18 4 18zM976 208c-3 0-2-11 0-11v11z" class="cls-7"/><path d="M975 223c-2 0 1-24 3-24s-3 24-3 24zM979 237c-1 0-2-14 0-14s2 14 0 14zM972 245c-2 0 1-17 3-18l-3 18zM965 231c-2 0-5-18-3-20 1-1 4 20 3 20zM963 256c-5 0-5-27-3-27l3 27zM950 216c-4 0-6-15-5-14 2 0 4 14 5 14zM948 230c-3 0-7-11-5-11l5 11z" class="cls-7"/><path d="M942 236v-13c2 0 2 13 0 13zM943 240c-3 0-9-7-7-8l7 8zM949 250l-5-18c2 0 7 18 5 18z" class="cls-7"/><path d="M947 242l1-8c1 0 2 8-1 8zM960 242c-4 0-4-12-2-12l2 12zM956 254l2-9c2 0 0 9-2 9zM965 246c-3 0-4-12-2-12l2 12zM965 231l3-11c3 0 0 11-3 11zM963 221c-2 0-5-9-3-9l3 9zM969 217c-3 0-8-14-6-14l6 14zM975 216c-4 0-3-11-1-11l1 11zM978 218c-2 0 2-18 4-17 1 1-4 17-4 17zM979 231l3-10c2 1-2 10-3 10zM968 249c-4 0 2-17 3-15l-3 15zM963 259c3 0 31-31 30-31 4 1-24 31-30 31z" class="cls-7"/><path d="M973 252c-2 0-1-7 1-6s0 6-1 6zM984 243l5-16c2-1-2 16-5 16zM283 218c-15 0-27-39-24-39l7 23c2 4 17 16 17 16z" class="cls-7"/><path d="M276 213c-3 0-12-41-12-41 3-1 12 41 12 41zM273 183c-4 0-4-24-5-24 3 0 4 24 5 24z" class="cls-7"/><path d="M275 208c-1 0-4-52-2-52l2 52z" class="cls-7"/><path d="M274 192c4 0 0-30 3-30-1 0 5 30-3 30zM287 196l-8-18c2-1 7 12 8 13 1-3 18-29 16-29 4 0-15 30-16 34z" class="cls-7"/><path d="M284 218c-3 0 2-26 3-26s-2 26-3 26z" class="cls-7"/><path d="M283 215c2 0 21-34 21-34 3 1-15 34-21 34z" class="cls-7"/><path d="M293 203c3 0 15-20 14-20 2 0-5 20-14 20zM291 187c-1 0-3-32-1-33 1 0 3 33 1 33z" class="cls-7"/><path d="M291 180c-6 0-4-18-3-17l3 17zM296 167c-3 0-2-12 0-11v11z" class="cls-7"/><path d="M295 181c-2 0 1-23 4-23l-4 23zM299 195v-14c1 0 2 14 0 14zM292 203c-2 0 1-17 3-17l-3 17zM285 190c-1 0-5-19-3-21 1-1 4 21 3 21zM283 215c-5 0-5-27-3-27l3 27zM271 175c-5 0-7-15-6-15 2 1 4 15 6 15zM268 189c-3 0-7-11-5-11l5 11z" class="cls-7"/><path d="M262 195v-13c2 0 2 13 0 13zM263 198c-3 0-9-7-7-7l7 7zM269 209s-6-19-4-19c1 0 6 19 4 19z" class="cls-7"/><path d="M267 201l1-9c1 0 2 9-1 9zM280 200c-4 0-3-11-2-11l2 11zM276 213l2-10c2 0 0 10-2 10zM285 205c-3 0-4-13-2-13l2 13zM285 190l3-12c3 0 0 12-3 12zM283 180c-2 0-5-10-3-9l3 9zM289 175c-3 0-8-13-6-13l6 13zM295 174c-4 0-3-11-1-10l1 10zM298 177c-2 0 2-18 4-17l-4 17zM299 189l3-9c2 0-1 9-3 9zM288 208c-4 0 2-17 3-16s-3 16-3 16zM283 218c3 0 31-31 30-32 5 2-24 32-30 32z" class="cls-7"/><path d="M293 210c-2 0-1-6 1-6s0 6-1 6zM304 201l5-15c2-1-2 15-5 15zM757 351c-11 0-20-28-18-28 0 0 9 28 18 28z" class="cls-7"/><path d="M752 348c-3 0-9-31-9-31 2 0 8 31 9 31zM749 326c-3 0-3-18-3-19 2 1 3 19 3 19zM751 344l-2-39 2 39zM750 332c3 0 0-22 3-22-1 0 3 22-3 22zM760 335l-6-13c1-1 5 8 6 9l12-21c3 0-12 23-12 25z" class="cls-7"/><path d="M757 351c-2 0 2-19 3-19l-3 19z" class="cls-7"/><path d="M757 349l16-25c2 1-12 25-16 25z" class="cls-7"/><path d="M764 341c2 0 12-15 11-15 1 0-4 15-11 15zM763 328s-3-23-1-24c0 0 3 24 1 24z" class="cls-7"/><path d="M763 323c-4 0-3-13-3-12l3 12zM767 313c-2 0-2-8 0-8v8z" class="cls-7"/><path d="M766 324c-2 0 1-17 2-17 2 0-2 17-2 17zM769 335v-11 11zM764 341c-2 0 1-13 2-13l-2 13zM758 331c-3 0-1-16-1-16l1 16zM757 349c-4 0-4-20-2-20l2 20zM748 319c-4 0-5-10-4-10l4 10zM746 330c-2 0-6-8-4-8l4 8z" class="cls-7"/><path d="M741 334v-10c2 1 2 10 0 10zM742 337c-1 0-7-5-5-6l5 6zM747 345l-4-14 4 14zM745 339l1-7c1 0 1 7-1 7zM755 338c-3 0-3-8-2-8l2 8zM752 348c-2 0-1-7 1-8 2 0 0 8-1 8zM758 342c-2 0-3-10-1-10l1 10zM758 331l3-9c2 0 0 9-3 9zM757 323c-1 0-4-7-2-7l2 7zM761 320c-2 0-6-10-4-10l4 10zM766 319c-3 0-2-8-1-8l1 8zM768 321c-2 0 2-13 3-13 1 1-3 13-3 13zM769 330c-2 0 0-7 2-7l-2 7zM761 344c-3 0 1-13 2-11l-2 11zM757 351c3 0 22-23 22-23 3 1-17 23-22 23zM764 346l1-5-1 5z" class="cls-7"/><path d="M773 339l3-12c2 0-1 12-3 12zM346 237c-12 0-20-29-18-29 0 0 9 29 18 29z" class="cls-7"/><path d="M341 233c-3 0-9-30-9-30 2-1 8 30 9 30zM338 211c-3 0-3-18-3-18 2 0 3 18 3 18zM339 230l-1-39 1 39zM339 218c3 0 0-23 2-23 0 0 4 23-2 23z" class="cls-7"/><path d="M349 221c-1-2-7-13-6-14l5 10 13-21c2 0-12 23-12 25z" class="cls-7"/><path d="M346 237c-2 0 2-19 2-19l-2 19z" class="cls-7"/><path d="M346 235l15-25c2 0-11 25-15 25z" class="cls-7"/><path d="M353 226c2 0 11-15 10-15 2 0-4 15-10 15zM352 214c-1 0-3-23-1-24l1 24z" class="cls-7"/><path d="M351 209c-3 0-3-13-2-13l2 13zM355 199c-1 0-2-9 0-8v8zM355 210c-2 0 1-17 2-17l-2 17zM358 220c-2 0-2-10 0-10s1 10 0 10zM352 226l2-13-2 13zM347 216c-3 0-2-15-1-15l1 15zM346 235c-4 0-4-20-2-20l2 20zM336 205c-3 0-4-11-3-11l3 11zM335 215c-2 0-6-8-4-8l4 8z" class="cls-7"/><path d="M330 220v-10c2 0 1 10 0 10zM331 223c-2 0-7-6-5-6l5 6zM335 230l-3-13c1 0 5 13 3 13z" class="cls-7"/><path d="M334 224v-6c1 0 2 6 0 6zM343 224c-2 0-2-9-1-8l1 8zM341 233c-2 0-1-7 1-7l-1 7zM347 227c-2 0-3-9-1-9l1 9zM347 216l2-8c3 0 0 8-2 8zM346 209c-2 0-4-7-2-7l2 7zM350 205c-2 0-6-10-4-10l4 10zM355 205c-3 0-2-8-1-8l1 8zM357 206c-2 0 1-13 3-12l-3 12zM357 216c-1 0 0-7 2-7s-1 7-2 7zM350 229c-4 0 1-12 2-11l-2 11zM346 237c2 0 22-23 22-23 3 1-17 23-22 23z" class="cls-7"/><path d="M353 231c-1 0-1-4 1-4s0 4-1 4zM361 225l4-12c2-1-1 12-4 12zM620 354c-4 3-3 16-1 19 5 8 16 8 22 15-3-10-15-8-20-16-2-3-3-14-1-18z" class="cls-7"/><path d="M614 352c-7 18 18 24 26 35-1-12-12-11-20-18-5-5-5-10-6-17z" class="cls-7"/><path d="M636 340c0 10-12 14-10 24 2 9 13 14 15 23 3-10-12-16-13-24-2-9 12-14 8-23z" class="cls-7"/><path d="M626 342c-3 10 5 14 9 22 4 7 1 16 5 23 0-21-10-27-14-45z" class="cls-7"/><path d="M636 350c0 7 10 11 12 17 2 7-3 16-8 20 9-2 10-12 10-19 0-9-11-11-14-18z" class="cls-7"/><path d="M642 342c-2 6 1 13 1 20l-3 26c9-13 5-32 2-46z" class="cls-7"/><path d="M665 352c-11 0-10 12-12 18-2 8-7 13-12 18 17-5 10-28 24-36z" class="cls-7"/><path d="M665 365c-8 8-11 19-24 23 11 2 22-14 24-23zM613 374c9 7 13 13 27 14-5-4-11-4-16-6-3-2-9-8-11-8zM479 299c-5 2-6 13-5 16 2 8 11 10 15 17 0-11-24-18-10-33z" class="cls-7"/><path d="M474 296c-10 13 10 25 15 36 1-11-9-13-14-20-3-5-2-10-1-16z" class="cls-7"/><path d="M495 291c-2 8-13 9-13 18-1 8 8 15 7 23 5-8-6-16-6-23 1-8 14-10 12-18z" class="cls-7"/><path d="M486 290c-4 8 1 13 3 21 2 7-2 14-1 21 5-18-2-25-2-42z" class="cls-7"/><path d="M493 299c-2 6 7 12 7 17 0 7-6 13-11 16 7 0 12-9 12-15 0-7-7-11-8-18z" class="cls-7"/><path d="M500 294c-3 4-2 10-3 15l-9 24c10-10 11-27 12-39z" class="cls-7"/><path d="M517 307c-9-2-11 8-14 14-4 5-9 9-14 12 16 0 15-22 28-26z" class="cls-7"/><path d="M515 319c-9 5-14 13-27 14 10 5 23-8 27-14zM468 314c6 9 9 14 20 18-4-4-9-5-13-9l-7-9zM903 301c3-11-3-24-3-35s5-26-1-36c2 23-2 48 4 71z" class="cls-7"/><path d="M892 235c-1 5 5 13 9 16-3-6-7-10-9-16zM889 241c-4 1 10 17 12 18-1-2-14-16-12-18z" class="cls-7"/><path d="M885 241c-1 4 4 8 8 9-4-3-6-4-8-9zM880 246c2 3 12 19 15 19-6-2-10-15-15-19z" class="cls-7"/><path d="M891 252c-1 5 4 18 9 20-5-5-7-13-9-20z" class="cls-7"/><path d="M883 256c-2 5 8 9 12 9-4-2-11-4-12-9z" class="cls-7"/><path d="M881 258l4 10c1-2-1-10-4-10zM882 265zM892 269c0 2 6 10 9 9-2 0-8-8-9-9zM892 253c0 4 5 11 7 13l-7-13zM884 270c-1 3 9 9 11 8-2 0-10-5-11-8z" class="cls-7"/><path d="M881 268c-4 4 16 21 21 21-5-2-22-14-21-21z" class="cls-7"/><path d="M879 274c1 3 6 6 9 4l-9-4zM883 280c-2 2 7 4 9 3-2-1-8 0-9-3zM887 286c1 2 9 2 10 1l-10-1zM893 289c1 2 7 6 10 6-2-2-8-6-10-6zM897 232c-2 4 1 9 4 12-1-4-4-7-4-12zM903 231c-1 1-3 6-2 7 1-1 3-5 2-7zM908 235c-3 5-6 13-7 19 2-4 7-15 7-19z" class="cls-7"/><path d="M905 234c-2 3-2 9-1 12l1-12zM909 241c-2 4-7 9-8 13 2-3 8-8 8-13zM910 245c-4 3-6 8-9 12 4-2 8-8 9-12z" class="cls-7"/><path d="M912 247l-5 3c1 1 5-2 5-3zM909 252l-9 13c6-3 6-8 9-13zM908 260a134 134 0 00-8 12c3-2 7-9 8-12zM909 262c-1 0-4 7-3 8 2-2 3-6 3-8zM909 267c0 1-8 9-8 11l8-11zM916 257c-4 5-13 26-14 32 7-8 12-21 14-32z" class="cls-7"/><path d="M908 271c-3 2-4 10-3 13 1-4 1-9 3-13zM912 256c-2 5-2 10-1 15l1-15z" class="cls-7"/><path d="M914 251a33 33 0 00-3 13 32 32 0 003-13zM920 257c-2 3-6 6-7 9 3-2 7-4 7-9zM922 261c-2 5-7 6-11 10 4-1 11-6 11-10z" class="cls-7"/><path d="M925 263c-4 5-12 7-16 12 6-2 15-6 16-12zM922 271l-12 4c5 1 8-2 12-4zM914 276c-2 1-6 6-5 9l5-9zM919 274l-5 6c2 0 4-4 5-6z" class="cls-7"/><path d="M924 272c-6 8-19 11-22 22 5-5 21-16 22-22z" class="cls-7"/><path d="M917 285c-3-1-10 3-13 5l13-5zM916 287l-13 10c3-1 12-6 13-10zM925 277a58 58 0 00-15 8c4-1 11-4 15-8zM929 271c-2 2-7 3-8 5 1 0 9-2 8-5zM931 265l-11 4 11-4zM930 253c-5 1-8 11-11 13 5 0 7-10 11-13zM919 240c-2 4-2 12 0 16v-16z" class="cls-7"/><path d="M927 240l-12 21c7-7 10-12 12-21zM422 276c3-11-3-25-3-36 1-11 6-25-1-36 2 24-1 48 4 72z" class="cls-7"/><path d="M411 209c-1 5 5 13 9 16-3-6-7-10-9-16zM408 215c-4 1 11 17 12 18-1-2-14-15-12-18z" class="cls-7"/><path d="M405 215c-2 4 4 8 7 9-3-3-6-4-7-9zM400 221c1 3 11 19 14 18-6-2-9-15-14-18z" class="cls-7"/><path d="M410 226c-1 5 4 18 9 20-5-5-7-13-9-20z" class="cls-7"/><path d="M402 230c-1 5 9 9 12 9-4-2-11-4-12-9z" class="cls-7"/><path d="M400 232l4 10c1-2-1-10-4-10zM401 239zM411 243c0 2 7 10 9 9-2 0-8-8-9-9zM412 227c-1 4 4 11 7 13-3-4-6-8-7-13zM404 244c-1 3 8 9 11 9-3-1-11-6-11-9z" class="cls-7"/><path d="M400 242c-4 5 17 22 22 21-5-2-23-14-22-21z" class="cls-7"/><path d="M399 249c1 2 6 5 8 4l-8-4zM402 254c-2 2 7 4 9 3-2-1-8 0-9-3zM407 261c1 1 8 2 9 1-1-2-7-2-9-1zM413 263c0 3 6 7 9 6l-9-6zM416 207c-2 4 2 8 4 11-1-4-4-7-4-11zM423 206c-1 1-3 5-2 6 0-1 3-5 2-6zM427 209c-2 5-6 13-7 19 3-4 8-14 7-19z" class="cls-7"/><path d="M424 208c-2 3-2 9-1 13l1-13zM429 216c-2 3-8 8-9 12 3-3 9-8 9-12zM429 219l-9 12c5-2 8-8 9-12z" class="cls-7"/><path d="M431 221l-5 3c1 1 5-2 5-3zM429 226c-2 1-9 12-10 14 7-4 6-9 10-14zM427 234a136 136 0 00-8 12c3-2 8-8 8-12zM429 236c-2 0-4 7-4 8 2-1 3-5 4-8zM428 241l-8 12c1-1 9-11 8-12zM436 231c-5 5-14 26-15 32 7-8 12-21 15-32z" class="cls-7"/><path d="M428 245c-4 2-4 10-4 14 1-5 1-10 4-14zM431 231c-1 4-2 9-1 14 1-4 2-11 1-14z" class="cls-7"/><path d="M434 225a33 33 0 00-4 13 32 32 0 004-13zM440 231l-8 9c3-2 7-4 8-9zM441 235c-2 5-7 7-10 10 3-1 11-5 10-10zM445 237l-16 12c5-2 14-6 16-12zM441 245l-12 4c5 2 9-2 12-4zM434 250c-3 1-6 6-6 9 2-1 6-7 6-9zM438 249c-1-1-5 4-5 6l5-6z" class="cls-7"/><path d="M443 246c-6 8-19 12-21 22 4-5 20-16 21-22z" class="cls-7"/><path d="M436 259c-3 0-10 3-12 5l12-5zM435 262l-13 9c4-1 12-5 13-9zM444 251a58 58 0 00-15 8c5-1 12-4 15-8zM448 245c-2 3-7 3-8 5 1 1 10-2 8-5zM450 239l-10 4 10-4zM449 228c-5 0-7 10-11 12 5 0 7-10 11-12zM439 215c-3 3-3 11 0 15v-15z" class="cls-7"/><path d="M446 214l-12 21c7-6 10-12 12-21zM947 164c-2-3-7-7-12-7-1-2-3-5-5-5-2 4-8 3-9 7a7 7 0 002 1c-4 2-8-2-11-4 0 0 3 14 0 12 3 2 11-7 9-2a7 7 0 000 4l5-3c1 0-481 3 5 0-3 2-1 1-2 4 5-2 1-3 6-4l1 3 11-6zm-13-7zm-1 0zm1 0zm-4 0zm1 0zm0 0zm1 0zm0 0zm0 0h1zm1 0zm-3 1zm-1 0zm-1 0h1zm1 0zm-1 0zm-1 0h1zm1 0zm0 0zm-1 0zm0 0zm-1 0h1zm0 1zm0 0zm0 0zm-1 0zm0 0zm0 0zm-1 0zm0 0zm0 0zm-1 0h1zm0 1zm12-3zm0 0zm-1 0zm-5 1zm0 0zm0 0zm-6 2zm0 0zm0 5zm0 0zm0 0zm24 0h-1zM988 149l-5-6c-3-2-14-10-17-10-2 7-11 3-12 9l2 1c-5 3-9-4-13-5 0 0 2 17-1 15 4 4 9-7 14-3l-2 1a9 9 0 00-1 5l7-4a23 23 0 007 1c-3 2-1 1-2 4 6-3 1-4 8-5v4l15-7zm-17-10zm-1 0zm0 0zm-4 1zm1 0zm0 0v-1zm1-1zm0 0zm1 0zm0 0h1zm-4 1h1zm-1 0zm0 1zm0 0zm-1 0zm-1 0h1zm1 0zm0 0zm-1 0zm-1 0h1zm0 0zm0 0zm-1 0h1zm0 1v-1zm0 0zm-1 0zm0 0zm-1 0zm0 0zm0 0zm-1 0zm0 1zm15-4zm0 0zm-1 0zm-7 1zm0 0zm1 0zm-9 3zm1 0h-1zm-1 7zm0 0zm0 0zm31-1zM972 177a20 20 0 00-2-3c-7-5-9-2-12 0-2 1-5-1-6-2 0 6 3 9 5 5a4 4 0 000 3c6-1-1-2 6-2-2 1-2 0-1 2 3-1 0-2 3-2a2 2 0 000 2c3-1 1-2 4-2a8 8 0 003-1zm-8-5zm0 0zm0 0zm-2 1zm1 0zm0 0zm0 0zm0-1zm1 0zm0 0zm-2 1zm-1 0zm0 0zm0 0zm0 0zm0 0zm0 0zm0 0zm-1 0h1zm0 0zm0 0zm0 0zm0 0zm0 1zm-1 0h1zm0 0zm0 0zm0 0zm0 0zm0 0zm-1 0zm0 0zm7-2zm0 0zm0 0zm-3 1zm0 0zm0 0zm-4 1zm0 0zm0 3zm0 0zm0 0zm13 0zM928 144a20 20 0 00-3-2c-6-6-8-2-11 0-2 1-5-2-6-3 0 6 3 10 5 6a4 4 0 000 2 7 7 0 003-2c-1 0-144 2 3 1-2 1-2-1-1 2 2-1 0-2 3-2v1l4-2a5 5 0 003-1zm-8-4zm0 0zm0 0zm-2 0zm0 0h1zm1 0zm0 0zm0 0zm0 0zm1 0zm-2 0zm-1 1zm0 0zm0 0zm0 0zm0 0zm0 0zm0 0zm-1 0h1zm0 0zm0 0zm0 0zm0 0zm0 0zm-1 0h1zm0 0zm0 0zm0 0zm0 0zm0 0zm-1 0zm0 1zm7-2zm0 0zm0 0zm-4 1zm1 0zm0 0zm-4 1zm0 0zm0 3zm0 0zm0 0zm13-1zM971 124a20 20 0 00-2-2c-7-6-9-2-12 0-2 1-4-2-6-3v7c2 0 6-3 5-1a4 4 0 000 2 7 7 0 003-1h3c-2 1-2-1-1 2-2 0 3-2 2-2h1a2 2 0 001 1l6-3zm-7-4zm-1 0zm0 0zm-2 0h1zm1 0zm0 0zm0 0zm0 0zm1 0zm0 0zm-2 0zm0 1zm-1 0zm0 0zm0 0zm0 0zm0 0zm0 0zm0 0zm-1 0h1zm0 0zm0 0zm0 0zm0 0zm0 0zm-1 0zm0 0zm0 0zm0 0zm0 0zm0 0zm-1 1zm7-2zm0 0zm0 0zm-3 0v0zm0 1zm0 0zm0 0zm-4 1zm0 0zm0 3zm0 0zm0 0zm14-1h-1zM999 166a20 20 0 00-2-3c-7-5-9-1-12 0-2 1-4-1-6-2 0 6 3 10 5 6a4 4 0 000 2c7-1-1-1 6-2l-1 2 3-2 1 2 3-2a5 5 0 003-1zm-7-5zm-1 0zm1 0zm-2 1zm0 0zm0 0zm0 0zm1 0zm0 0zm0 0zm-2 0h1zm0 0zm0 0zm0 0zm-1 0h1zm0 0zm0 0zm0 0zm0 0zm0 0zm-1 0h1zm0 1zm0 0zm0 0zm0 0zm0 0zm-1 0h1zm0 0zm0 0zm0 0zm0 0zm0 0zm6-2zm0 0zm0 0zm-3 1zm0 0zm0 0zm-4 1zm1 0h-1zm-1 3zm0 0zm0 0zm14 0zM1012 176zm0 5zm0 0zm0 0z" class="cls-7"/><g class="cls-8"><path d="M743 353q-2 3-3 0 1-3 3 0zM754 365c-1 2-2 2-3 0 1-2 2-2 3 0zM730 383q-1 3-3 0 2-3 3 0zM755 391q-1 3-3 0 2-3 3 0zM749 371c0 7-6 0-6 0s6-7 6 0zM750 359c0 6-5 0-5 0s5-7 5 0zM748 395c0 9-8 0-8 0s8-9 8 0zM739 377c0 8-8 0-8 0s8-9 8 0zM752 383c0 6-9 6-9 0s9-7 9 0z" class="cls-9"/></g><g class="cls-8"><path d="M950 271c0 8-7 0-7 0s7-8 7 0zM957 228l-2 2c-5 0 2-7 2-2zM971 243l-2 2c-5 0 2-7 2-2zM942 264l-2 2c-5 0 2-7 2-2zM973 275l-2 2c-5 0 2-7 2-2zM964 250c0 8-7 0-7 0s7-8 7 0zM967 235c0 8-8 0-8 0s8-8 8 0zM963 279c0 6-9 6-9 0s9-6 9 0zM952 257c0 6-9 6-9 0s9-6 9 0zM969 264c0 8-12 8-12 0s12-7 12 0zM954 241c0 8-12 8-12 0s12-8 12 0z" class="cls-9"/></g><g class="cls-8"><path d="M525 384c0 7-6 0-6 0s6-7 6 0zM542 361c-1 2-2 2-3 0 1-2 2-2 3 0zM518 379c-1 2-2 2-3 0 1-2 2-2 3 0zM544 387c-1 2-2 2-3 0 1-2 2-2 3 0zM539 355c0 6-6 0-6 0s6-7 6 0zM536 391c0 9-8 0-8 0s8-9 8 0zM541 379c0 6-10 6-10 0s10-7 10 0zM528 360c0 6-10 6-10 0s10-7 10 0z" class="cls-9"/></g><g class="cls-8"><path d="M515 300c0 4-6 4-6 0s6-4 6 0zM532 277q-2 3-3 0 1-3 3 0zM508 295q-2 3-3 0 1-3 3 0zM533 303q-1 3-3 0 2-3 3 0zM528 270c0 7-6 0-6 0s6-6 6 0zM525 307c0 8-7 0-7 0s7-9 7 0zM530 295c0 6-10 6-10 0s10-7 10 0zM518 275c0 7-10 7-10 0s10-6 10 0z" class="cls-9"/></g><g class="cls-8"><path d="M358 144c0 7-6 0-6 0s6-6 6 0zM375 121q-2 3-3 0 1-3 3 0zM351 139c-1 2-2 2-3 0 1-2 2-2 3 0zM376 147c-1 2-2 2-3 0 1-2 2-2 3 0zM371 115c0 6-6 0-6 0s6-7 6 0zM368 151c0 9-7 0-7 0s7-9 7 0zM373 139c0 6-10 6-10 0s10-7 10 0zM361 120c0 6-10 6-10 0s10-7 10 0z" class="cls-9"/></g><g class="cls-8"><path d="M296 74c0 7-6 0-6 0s6-7 6 0zM313 51q-2 3-3 0 1-3 3 0zM289 68c-1 2-2 2-3 0 1-2 2-2 3 0zM314 77q-1 3-3 0 2-3 3 0zM309 44c0 7-6 0-6 0s6-6 6 0zM306 81c0 8-7 0-7 0s7-9 7 0zM311 68c0 7-10 7-10 0s10-6 10 0zM299 49c0 7-10 7-10 0s10-6 10 0z" class="cls-9"/></g><g class="cls-8"><path d="M373 330c0 7-6 0-6 0s6-6 6 0zM390 307q-1 3-3 0 2-3 3 0zM366 325q-1 3-3 0 2-3 3 0zM392 333c-1 2-2 2-3 0 1-2 2-2 3 0zM387 301c0 7-6 0-6 0s6-7 6 0zM384 337c0 9-8 0-8 0s8-9 8 0zM389 325c0 6-10 6-10 0s10-6 10 0zM376 306c0 6-10 6-10 0s10-7 10 0z" class="cls-9"/></g><g class="cls-8"><path d="M838 317c0 7-6 0-6 0s6-6 6 0zM855 294c-1 2-2 2-3 0 1-2 2-2 3 0zM831 312q-2 3-3 0 1-3 3 0zM856 320q-1 3-3 0 2-3 3 0zM851 288c0 7-6 0-6 0s6-7 6 0zM848 324c0 9-7 0-7 0s7-8 7 0zM853 312c0 6-10 6-10 0s10-6 10 0zM841 293c0 6-10 6-10 0s10-7 10 0z" class="cls-9"/></g><g class="cls-8"><path d="M841 104c0 7-6 0-6 0s6-7 6 0zM858 81q-2 3-3 0 1-3 3 0zM834 99c-1 2-2 2-3 0 1-2 2-2 3 0zM859 107q-1 3-3 0 2-3 3 0zM854 75c0 6-6 0-6 0s6-7 6 0zM851 111c0 9-7 0-7 0s7-9 7 0zM856 99c0 6-10 6-10 0s10-7 10 0zM844 80c0 6-10 6-10 0s10-7 10 0z" class="cls-9"/></g><g class="cls-8"><path d="M924 129c0 5-5 0-5 0s5-5 5 0zM937 112q-1 2-2 0 1-3 2 0zM918 125q-1 2-2 0 1-2 2 0zM938 131q-1 3-2 0 1-2 2 0zM934 107c0 5-4 0-4 0s4-6 4 0zM932 134c0 7-6 0-6 0s6-6 6 0zM936 125c0 9-8 0-8 0s8-9 8 0zM926 110c0 9-8 0-8 0s8-8 8 0z" class="cls-9"/></g><g class="cls-8"><path d="M984 123c0 6-6 0-6 0s6-7 6 0zM1001 100c-1 2-2 2-3 0 1-2 2-2 3 0zM977 117q-1 3-3 0 2-3 3 0zM1002 126q-1 3-3 0 2-3 3 0zM998 93c0 7-6 0-6 0s6-7 6 0zM995 129c0 9-8 0-8 0s8-8 8 0zM999 117c0 7-9 7-9 0s9-6 9 0zM987 98c0 6-10 6-10 0s10-6 10 0z" class="cls-9"/></g><g class="cls-8"><path d="M341 296c0 7-6 0-6 0s6-6 6 0zM347 261q-1 3-3 0 2-3 3 0zM358 273q-1 3-3 0 2-3 3 0zM334 291c-1 2-2 2-3 0 1-2 2-2 3 0zM360 299q-2 3-3 0 1-3 3 0zM353 279c0 7-6 0-6 0s6-7 6 0zM355 267c0 6-6 0-6 0s6-7 6 0zM352 303c0 9-8 0-8 0s8-9 8 0zM343 285c0 8-8 0-8 0s8-9 8 0zM357 291c0 6-10 6-10 0s10-7 10 0zM344 272c0 6-10 6-10 0s10-7 10 0z" class="cls-9"/></g><g class="cls-8"><path d="M291 259c0 8-7 0-7 0s7-8 7 0zM298 216l-2 2c-5 0 2-7 2-2zM312 231l-2 2q-4-2 0-4zM282 252l-2 2c-5 0 2-7 2-2zM313 263l-1 2c-6 0 1-7 1-2zM305 238c0 8-7 0-7 0s7-8 7 0zM307 223c0 8-7 0-7 0s7-8 7 0zM304 267c0 6-10 6-10 0s10-6 10 0zM293 245c0 6-9 6-9 0s9-6 9 0zM310 252c0 8-12 8-12 0s12-7 12 0zM294 229c0 8-12 8-12 0s12-8 12 0z" class="cls-9"/></g><path d="M971 325c-11 9-26 17-35 27-8 8-3 26-20 24-7-1-10-6-16-5s-13 5-18 9a251 251 0 00-23 17c-9 7-8 9-7 20 1 27-15 1-26-4-7-3-34 0-40 5-9 7-7 23-21 28-16 4-34-9-49-12-17-2-20 13-33 23s-30 11-45 9c-5 0-13-4-18-3s-11 8-15 12c-8 7-7 6-17 2l-22-8c-16-5-25-11-36-24-5-5-6-11-13-12s-13 5-21 3c-6-2-12-7-13-14s3-8-2-16c-3-3-12-11-16-12-6-1-14 6-20 3-9-4-9-15-11-23-3-9-5-9-14-15-6-3-12-8-18-9-8 0-21 7-28 10-3 1-18 8-22 7-3-2-8-15-11-18a66 66 0 00-19-13c-12-6-12-6-18 4-10-7-17-10-19-22-2-14-2-29-3-43 0-12 3-22-6-31-8-9-19-10-31-14v284c0 4-2 20 1 22s19 0 22 0h691c9 0 23 3 31 0 8-2 5-3 5-14V287c-5 2-21 5-24 9-3 5 0 23 0 29z" class="cls-10"/><path d="M539 437c3 4 7 6 9 12-1-1-4-6-5-5-3 2 13 16 13 17-3 1-6-3-8-2a10 10 0 006 6c-7 3 6 2 7 2 7 3 6 4 8 9 6 0 12-10 16-14 3-4 13-7 15-12 2-4-7 0-6 0a4 4 0 002-5c-8 1-4 7-11 9-3-7 9-9 8-15 0-4-5 3-6 3-2-5 6-6 5-10-9 3 0 0-4-5l-8 4c1-3 9-4 7-8-6 0-4-5-8 0-2 1-4 8-4 10-1-5 5-13 3-17-6 1-2-3-6 2a6 6 0 00-3-4c-3 1 2 14 2 16-1 0-7-7-8-4s10 11 9 15c-4 2-11-19-15-16-2-5 1-12-9-6 0 0 6 9 2 9-2 0-4-6-6-3-2 2 3 5 4 6a9 9 0 00-5 0c3 6 9 1 9 11-1 0-16-12-13-5zm44 1l-3 1a22 22 0 013-4v3zm-6 14c1-2 4-3 3-5a3 3 0 00-4 1c6-14 7 7 3 11l-2-7zm-7 8c7 2 4 9 2 7 0 0-8-7-2-7zm-3-10c-2-2-2-4 0-6 3 3 5 7 4 11a57 57 0 00-4-5zm-6 7c2-7 4 2 4 2 5 5-5 3-4-2zm0-16c-4-6-7-8-6-14 1 3 12 14 9 17q-3 1-3-3zm-6-4a13 13 0 014 9 10 10 0 01-4-9zm-5 7c3 2 8 5 10 9-5 3-9-6-10-9zM432 350l-11 5c0-1 17-18 11-18l-8 11c1-1 8-13 5-13-2 0-4 5-4 6-1-1 1-3-2-3 2 0-8 20-10 22 2-6 3-13 6-18 1-3 16-19 13-20a8 8 0 00-6 7c1-3 1-5-1-6 0 0-2 9-4 11 0 0 3-17 4-16-1-3-4 4-5 5a2 2 0 00-2-2c2 0-2 20-3 23-4-6-3-13-1-19 0-2 7-17 3-15-2 1-5 12-6 14 0-3 1-14-1-15-4-2-2 9-1 10-1 0-9-9-10-7-2 2 3 4 3 5 3 6 6 5 7 13 3 11 6 17 2 28-3-4-6-12-6-17-1-3 4-12 1-13s-3 10-4 12c-2-2-7-23-6-23l-1 6c-1-1-8-7-10-6-3 1 3 4 5 5l-6 2c1 4 7 0 8 1 2 1 3 4 4 6 4 6 9 18 11 25a34 34 0 01-11-12c-1-1-3-10-5-11-3-1 1 8 1 9-1-2-10-12-12-10q0 5 5 7c-1 0-8-2-8 1 0-4 20 10 22 12-2 0-13-4-13-2s4 3 4 3-7 3-4 5c2 1 7-3 9-4 6 0 9 5 14 7 5 1 1 0 8-2 1 0 19-8 15-9zM312 294c-6 2-11 5-17 2 8-3 17-4 21-12-9 8-20 10-32 12 7-8 8-7 17-9 5-1 13-2 15-8-5 2-10 5-16 6 6-3 10-9 14-14-9 5-13 12-23 15 7-10 19-15 25-26l-17 14c3-5 7-11 9-17-10 10-14 24-24 33 5-14 15-23 21-36l-15 19 11-22c-10 10-11 18-16 30 0-5 0-12 3-17-7 0-4 20-6 24 1-14 0-22 10-34-17 8-10 25-12 39-1-13-5-20 0-31-11 11-2 26-1 40 0-1 0-1 0 0-2-3 14-4 14-4 5 0 15 6 19-4zm-28-2c4-3-3 6-4 7l4-7zM304 222c-6 5-10 9-17 10 5-5 15-11 13-21-4 12-15 20-26 28 2-12 3-11 12-17 5-3 13-9 11-15l-13 14c4-7 4-13 4-20-5 10-5 18-14 26 0-13 10-24 8-36l-8 21a148 148 0 00-2-19c-4 14 2 27-3 41-6-15 0-28-3-42-2 7-3 17-3 24-4-9-2-15-4-25-5 15 1 21 4 35-3-4-9-11-10-16-6 3 12 20 12 23-10-12-18-16-14-34-14 17 8 27 15 39-10-10-20-12-23-26-4 17 19 24 29 34-2 0 12-10 13-11 5-2 22-3 19-13zm-33 13c2-5 0 7 0 9v-9zM677 453c-6 4-10 9-17 10 5-6 15-11 13-22-4 13-15 21-26 29 2-12 3-11 12-17 5-3 13-9 11-16-5 4-8 11-13 14 4-6 4-12 4-19-5 9-5 17-14 25 0-12 10-23 8-35l-8 21a149 149 0 00-2-19c-4 13 2 27-3 40-6-14 0-27-3-41-2 7-3 17-3 24-4-9-2-16-4-25-5 15 1 21 4 35-3-4-9-11-10-17-6 4 11 21 12 23-10-11-18-16-14-33-14 17 8 27 15 39-10-10-20-12-23-26-4 17 19 24 29 34-3-1 12-11 13-11 5-2 22-3 19-13zm-33 13c2-5 0 6 0 8 0-3-2-5 0-8zM505 378c-6 5-9 10-17 11 6-6 16-12 14-22-5 13-16 21-27 28 2-11 4-10 13-17 4-3 12-9 11-15-5 4-8 10-14 14 4-6 4-12 4-20-5 10-5 18-14 26 0-12 10-23 8-36l-7 22a148 148 0 00-3-20c-4 14 2 27-3 41-5-15 0-27-3-42-2 7-3 17-3 25-3-9-2-16-4-25-4 15 1 20 5 34-4-4-9-10-11-16-6 4 12 21 13 23-10-11-18-16-15-33-14 17 8 26 15 39-10-10-20-12-23-26-4 16 19 23 29 34v-1c-2 0 12-10 13-10 5-2 22-4 19-14zm-33 13c2-4 1 7 0 9v-9zM905 372c-5 5-9 9-17 10 6-5 16-11 14-21-5 12-16 20-26 28 1-12 3-11 12-17 4-3 12-9 11-15-5 4-8 10-14 14 4-7 4-13 5-20-6 10-6 18-14 26 0-13 10-24 7-36l-7 21a148 148 0 00-3-19c-4 14 2 27-3 41-5-15 0-28-2-42-3 7-3 17-4 24-3-8-2-15-4-24-4 14 2 20 5 34-4-4-9-11-10-16-6 4 11 20 12 23-10-12-18-16-14-33-14 16 8 26 15 38-11-9-20-12-23-26-5 17 19 24 29 34-3 0 11-10 12-11 5-2 22-3 19-13zm-33 13c2-5 1 7 1 9 0-4-2-5-1-9zM357 328c-3 0 1-7-2-6l-8 9c3-6 1-8 6-13a46 46 0 004-5c0-1 3 1 4-1q0-3-4-2v-5l-8 14c0-1 3-11 2-12q-3 0-3 4a2 2 0 00-3-2c2-1-1 22-5 26 0-1 1-4-1-5-1 0-3 8-6 9 2-10 6-16 9-25l3-8 7-7-6-5c-2 1 0 8-4 11 0-3 3-11 0-12-2 1-3 3-2 6q-2-2-3 0c0 2 3 3 3 6a66 66 0 00-1 7c-5-4-2-18-4-18-4-2-3 10-2 12-1 0-4-2-4 0l7 7c3 5 3 6-1 12-1-1-13-28-10-28-2 0-1 5-1 7 0-1-4-10-6-7a6 6 0 002 6q-4-2-5 2c1 3 6-1 7 0l4 9c2 4 8 11 6 15a3 3 0 00-3-2l2 10c-2-3-8-25-10-25s-3 2-2 3q-2-2-4 1c0-2 7 9 7 9l-7-7c-4-1 1 5 1 5q-4 1-2 4c3 2 3-2 7 1s6 13 11 14c4 1 17-9 20-11-1 0 11-2 5-3zM1004 273c-1 0-10 11-13 12l6-9s3-13 4-12c-2-2-6 8-5 7-3 6-4 12-10 17l4-13c-2 0-4 7-4 8-3 5 1 6-6 10 1-2 18-45 14-45l-1 12-4-10c-5 0 2 8 2 9 0 4 0 7-4 11l-2-19c-1-10 2 1 2-4l-3-5-2 39-2-13c-3 6 2 15-1 23-3-7-3-8-3-16 0-5 7-31 1-31 1 0 0 18-2 20 1-3 1-21-3-21 2 0 3 25 3 32-3-4-5-3-6-8 0 0 3-9-1-9l-1 12c-2-2-2-19-6-19-3 0 2 6 2 6-5 0 4 15 5 15 0 1 5 2 6 4 2 3 3 13 4 17-6-1-8-13-7-13q-4 2-1 7l-4-12-3 7 11 11c8 4 7-2 16-6l10-3c-1 0 6-11 4-11zM749 418s-9 11-12 12l6-9 3-11c-1-2-5 8-5 6-3 6-3 13-9 18l3-14-4 9c-2 5 1 5-6 9 1-2 19-45 14-45l-1 12-4-10c-5 0 2 9 2 9 0 5 1 7-4 11l-2-18c0-10 2 1 2-5l-2-5-2 39-3-13c2 0 1 20-1 24-3-8-3-8-3-17 0-4 7-30 1-30l-1 20c0-3 1-22-4-22 2 0 3 26 3 32-3-4-4-3-6-7 0-1 3-9 0-9l-1 11c-3-2-2-18-7-18-3 0 2 5 2 6-4-1 5 15 5 15 1 1 5 1 6 4 2 2 3 13 5 17-6-2-9-14-8-14q-3 3-1 8l-4-12c2 0-2 6-2 6l10 11c9 4 7-1 16-5l10-4c-1 1 6-11 4-11zM537 417c0-2-5 4-6 5l-1-5-3 10s1-8-1-8c1 0-2 12-6 14 4-4 3-9 4-14 0 0 6-21 3-19l-2 9c0-1 0-8-2-8-2 1 0 12 0 13l-2-5c4 0-2 22-4 25v-22c0-2 6-24 2-23l-1 10-4-8 2 14c-1-1-6-14-8-13-2 0 7 16 7 15 3 8-1 18 0 26-2-2-7-34-8-34l1 11-6-7c-5-1 6 9 6 9 3 6 1 18 6 23-6-1-10-16-8-16l-2 6c-1-2 0-8-2-7-3 0 1 9 2 10l-5-3c-5-1 6 6 7 7 4 3 5 6 11 6 5-1 20-15 20-21zM821 396l-7 6v-6l-3 11c0-1 1-9-1-9 1 0-2 13-6 15 3-4 3-10 4-15 0 0 6-20 2-18l-1 8-2-7c-2 0 0 12 0 12l-2-4c4 0-2 21-4 24v-22c0-1 6-24 2-22l-1 9-4-8 2 14c-1-1-6-13-8-13-3 0 7 16 7 16 3 8-1 18 0 26-2-3-7-35-8-34s1 8 1 10l-6-7c-6 0 6 9 6 9 2 6 1 19 6 23-7-1-10-15-8-15l-2 5c-1-1 0-7-2-7-3 0 1 10 2 11l-5-4c-5-1 6 7 7 7 4 3 4 7 11 6 5-1 20-15 20-21zM964 330l-6 6c0-1 1-5-1-5s-1 9-2 10c0 0 1-9-1-9 1 0-2 13-6 15 3-4 3-9 4-14 0-1 6-21 2-19l-1 8c0-1-1-7-3-7l1 12-3-4c4 0-1 22-3 24l-1-21c0-2 6-25 3-23-1 0 0 7-2 9 0-1-2-8-4-8 0 0 3 12 2 14 0-1-5-13-8-13-2 0 8 16 8 16 2 8-2 18 0 26-2-2-7-35-9-34s2 9 2 10l-6-7c-6 0 5 9 5 10 3 5 2 18 6 23-6-2-10-16-7-16l-3 5c-1-1 1-7-1-7-4 1 0 10 1 11l-5-4c-4 0 7 7 7 7 4 3 5 7 11 6 6 0 21-15 20-21zM477 326c-3-4-12-10-16-11-1 2-8 5-8 7a6 6 0 001 0c-2 2-7-2-9-3 0-1 3 12 0 10 3 2 10-6 8-2a6 6 0 000 4c10-1-2-2 9-2l-2 3c5-2 1-3 6-3v2l11-5zm-12-7zm-1 0zm0 0zm-3 1h1zm1 0zm0 0zm1 0zm0 0zm0 0zm1-1zm-3 1zm-1 0zm0 1zm0 0zm-1 0h1zm0 0zm0 0zm0 0zm0 0zm-1 0zm0 0zm0 0zm-1 0h1zm0 0zm0 0zm0 0zm-1 1zm0 0zm0 0zm0 0zm-1 0zm0 0zm11-3zm-1 0zm0 0zm-5 2zm0 0zm0 0zm-5 1zm0 0zm0 5zm-1 0zm1 0zm21-1l-1 1z" class="cls-10"/><path d="M513 312c-4-5-15-13-20-13-2 5-10 2-11 7a8 8 0 002 1c-3 3-8-2-11-5 0 0 1 16-1 14 4 3 8-6 12-3l-2 1a8 8 0 000 5c2 0 5-2 6-4 1 0-543 4 6 1-3 2-1 1-2 4 6-3 1-4 7-4l1 3 13-7zm-15-9zm-1 1zm0-1zm-4 1zm1 0zm0 0zm1 0zm0 0zm1 0zm0 0zm-3 1v-1zm-2 0h1zm0 0zm0 0zm0 0zm-1 0zm0 0zm0 0h1zm0 0zm-1 1v-1zm0 0zm-1 0h1zm0 0zm0 0zm-1 0h1zm0 0zm0 0zm-1 0zm0 1v-1zm0 0zm-1 0zm0 0zm14-4zm-1 0zm0 0zm-6 2zm0 0zm0 0zm-7 2h-1zm0 0zm0 7zm-1 0zm0 0zm28-1h-1zM499 337c-2-2-7-6-9-6l-4 4c-2 1-4-1-5-2 0 5 2 8 4 5a17 17 0 005 1l-1 2c3-2 1-2 3-2a1 1 0 001 1l6-3zm-7-4zm-1 0zm1 0zm-2 1zm0 0zm0 0zm1-1zm0 0zm0 0zm0 0zm-1 1zm-1 0zm0 0zm0 0zm0 0zm-1 0h1zm1 0zm0 0zm-1 0zm0 0zm0 0zm0 0zm0 0zm0 0zm-1 0zm0 0zm0 0zm0 1zm0 0zm0 0zm-1 0h1zm0 0zm6-2zm0 0zm0 0zm-3 1zm0 0zm0 0zm-3 1zm0 0zm0 3zm0 0zm0 0zm12-1z" class="cls-10"/><path d="M459 308c-2-2-6-6-8-6l-4 4c-2 1-4-1-5-2-1 5 2 8 4 5-1 0 0 3 2 0 1 0-237 2 3 1-1 0-2 0-1 1l3-1a1 1 0 000 1l6-3zm-7-4h1zm0 0zm0 0zm-1 1zm0 0zm0 0zm0-1zm0 0h1zm1 0zm0 0zm-2 1h1zm0 0zm0 0zm0 0zm0 0zm-1 0zm0 0zm0 0zm0 0zm0 0zm0 0zm0 0zm-1 0zm0 0zm0 0zm0 0zm0 0zm0 0zm-1 1zm0 0zm0 0zm0 0zm6-2zm0 0zm0 0zm-3 1zm0 0zm0 0zm-3 1zm0 0zm0 3zm0 0zm0 0zm12-1zM498 290c-2-2-6-6-9-6l-4 4c-1 1-4-1-5-2 0 5 2 9 4 5 0 0 0 3 3 1 0 0-267 2 2 0l-1 2c3-1 1-2 4-2a1 1 0 000 1l6-3zm-7-3zm0 0zm0 0zm-2 0zm0 0zm1 0zm0 0zm0 0zm0 0zm0 0zm-1 0zm-1 0zm0 0zm0 0zm0 0zm0 0zm0 0zm0 0zm-1 0h1zm0 0zm0 0zm0 0zm0 0zm0 1zm0 0zm-1 0zm0 0zm0 0zm0 0zm0 0zm0 0zm-1 0h1zm6-2zm0 0zm0 0zm-3 1zm0 0zm0 0zm-3 1zm0 0zm0 3zm0 0zm0 0zm12-1zM523 327c-2-2-6-6-9-6l-4 4c-1 1-4-1-5-2 0 5 3 9 4 5 0 0 0 3 3 1 0 0-267 2 2 0v2c2-1 0-2 3-2a1 1 0 000 1l6-3zm-7-3zm0 0zm0 0zm-2 0zm0 0h1zm1 0zm0 0zm0 0zm0 0zm1 0zm-2 0zm-1 0zm0 0zm0 0zm0 0zm0 0zm0 0zm0 0zm0 0zm-1 1h1zm0 0zm0 0zm0 0zm0 0zm0 0zm0 0zm-1 0zm0 0zm0 0zm0 0zm0 0zm0 0zm6-2zm0 0zm-1 0zm-2 1zm0 0zm0 0zm-4 1zm1 0h-1zm-1 3zm0 0zm0 0zm12-1zM554 341c-3-4-11-10-14-10l-6 6c-2 1-6-2-8-3v9c1 2 9-6 7-1a5 5 0 000 3c9-1-2-2 8-2-2 1-1 0-2 3 5-2 1-3 5-3a2 2 0 001 2c4-1 6-4 9-4zm-11-7zm0 0zm0 0zm-3 1h1zm1 0zm0 0zm0 0h1zm1 0zm0 0zm0-1zm-2 1zm-1 0zm0 0zm0 0zm0 1zm-1 0zm0 0zm0 0h1zm0 0zm0 0zm-1 0zm0 0zm0 0zm0 0zm-1 0zm0 0zm0 0zm0 0zm-1 1zm0 0zm0 0zm0 0zm9-3zm0 0zm0 0zm-5 1zm0 0zm0 0zm-5 2zm1 0h-1zm-1 5zm0-1zm0 0zm19 0zM791 330c-2-3-9-9-12-9l-5 6c-3 1-6-2-8-3v8c2 2 8-5 6-1a5 5 0 000 3c9-1-1-2 8-2-2 2-1-1-2 3 4-2 1-3 5-3a2 2 0 000 2c3-1 5-4 8-4zm-9-6zm-1 0zm1 0zm-3 1zm1 0zm0 0zm0 0zm0-1h1zm1 0zm0 0zm-2 1zm-1 0zm0 0zm0 0zm0 0zm-1 0zm0 0zm1 0zm-1 1zm0 0zm-1 0h1zm0 0zm0 0zm0 0zm0 0zm-1 0zm0 0zm0 0zm0 0zm-1 0h1zm0 0zm0 1zm9-3zm-1 0zm0 0zm-4 1zm0 0zm0 0zm-4 2zm0 0zm0 4zm0 0zm0 0zm17-1zM821 319c-4-4-12-11-16-11-2 1-8 4-9 6a7 7 0 002 1c-3 1-8-2-10-4 0-1 2 13 0 11 2 2 10-6 8-2a6 6 0 000 4c11-1-2-2 9-3-2 2 0 1-1 4 4-2 1-3 5-4l1 3 11-5zm-13-7zm0 0zm0 0zm-3 0zm0 0zm1 0zm0 0zm0 0a1 1 0 011 0 1 1 0 00-1 0zm1 0zm0 0zm-3 0h1zm-1 1zm0 0zm0 0zm0 0zm-1 0zm0 0h1zm1 0zm-1 0zm0 0zm-1 0zm0 0zm0 0zm-1 1h1zm0 0zm0 0zm-1 0h1zm0 0zm0 0zm0 0zm-1 0h1zm0 0zm11-2zm0 0zm0 0zm-5 1zm0 0zm0 0zm-6 2zm0-1zm0 6zm0 0zm0 0zm22-1h-1zM809 339c-4-5-7-4-10-2-1 1-3-1-4-2 0 4 1 8 3 4l4 1v1l2-1a1 1 0 000 1l3-2a6 6 0 002 0zm-5-4zm-1 0zm1 0zm-2 1zm0 0zm0 0h1zm1 0zm0 0zm0 0zm0 0zm-1 0zm0 0zm-1 0zm0 0zm0 0zm0 0zm0 0zm0 0zm0 0zm0 0zm0 0zm-1 0h1zm0 0zm0 0zm0 0zm0 0zm0 0zm0 0zm0 0zm-1 0zm0 0zm0 0zm5-1zm0 0zm0 0zm-2 1zm0 0zm0 0zm-3 0zm0 0zm0 3zm0 0zm0 0zm10 0zM778 315c-4-4-8-3-11-1l-4-2v5c1 0 4-3 4-1 0 0 0 2 2 0-1 0-8 1 2 1-1 0-2 0-1 1l3-2a1 1 0 000 2c2-1 0-2 2-2a4 4 0 003-1zm-6-3zm0 0zm0 0zm-1 0zm0 0zm0 0zm0 0zm0 0zm0 0zm1 0zm-2 1zm0 0zm0 0zm0 0zm0 0zm-1 0zm0 0zm1 0zm-1 0zm0 0zm0 0zm0 0zm0 0zm0 0zm0 0zm-1 0zm0 0zm0 0zm0 0zm0 0zm0 0zm0 0zm5-1zm-1 0zm0 0zm-2 0zm0 0zm0 0zm-3 1zm1 0h-1zm-1 2zm0 0zm0 0zm10 0zM808 301c-3-4-7-4-10-2-1 1-3-1-4-2v5c1 1 4-2 4 0 0 0 0 2 2 0h2c-1 1-2 0-1 2 2-1 1-2 3-2a1 1 0 000 1l4-2zm-5-3zm0 0zm0 0zm-2 0h1zm1 0zm0 0zm0 0zm0 0zm0 0zm1 0zm-2 0zm0 1zm0 0zm0 0zm0 0zm-1 0zm0 0zm1 0zm-1 0zm0 0zm0 0zm0 0zm0 0zm0 0zm-1 0zm0 0zm0 0zm0 0zm0 0zm0 0zm0 0zm0 0zm4-1zm0 0zm0 0zm-2 0zm0 0zm0 0zm0 0zm-3 1zm0 0zm0 2zm0 0zm0 0zm10 0zM829 331c-4-5-8-4-10-2-2 1-4-1-5-2 0 4 2 8 4 4l4 1-1 1 3-1a1 1 0 000 1l3-2a3 3 0 002 0zm-6-3zm0 0zm0 0zm-1 0zm0 0zm0 0zm0 0zm0 0zm1 0zm0 0zm-2 0h1zm0 0zm0 0zm0 0zm0 0zm0 0zm0 0zm0 0zm-1 0zm0 1zm0 0zm0 0zm0 0zm0 0zm0 0zm0 0zm-1 0zm0 0zm0 0zm0 0zm0 0zm0 0zm5-2zm0 0zm-1 0zm-2 1zm0 0zm0 0zm-2 1zm0 0zm0 2zm-1 0zm0 0zm10 0zM854 341a18 18 0 00-3-3c-7-6-10-2-13 0-2 2-5-1-7-2 0 6 3 11 6 6a4 4 0 00-1 3 8 8 0 004-2h3c-2 2-1-1-1 3 3-2 1-3 4-3a2 2 0 000 2l8-4zm-9-5zm0 0zm0 0zm-2 1zm0 0zm0 0zm1 0zm0 0zm0-1zm0 0zm-2 1h1zm0 0zm-1 0h1zm1 0zm-1 0zm0 0zm0 0zm0 0zm0 1zm-1 0h1zm0 0zm0 0zm0 0zm0 0zm-1 0h1zm0 0zm0 0zm0 0zm0 0zm-1 0h1zm0 0zm0 0zm8-2zm0 0zm-1 0zm-3 1zm0 0zm0 0zm-4 2zm0-1zm0 4zm0 0zm0 0zm15 0z" class="cls-10"/><path d="M968 378c-6 6-10 4-17 5-9 1-11 4-18 9-4 4-7 9-12 12-8 7-18 5-29 8-16 6-36 12-42 28-1 4-2 16-6 18-2 2-13 1-16 1-13 2-32 6-37 19-4 11 4 10-10 14-6 1-15 3-21 7l-12 11c-8 8-8 5-18 2-19-7-35-13-54-8-12 3-25 10-37 12-16 2-22-9-35-15-7-4-14-5-21-5-11-1-10 2-20 6-4 2-12 6-16 5-2-1-3-6-5-8-3-2-8-2-12-3-12-4-25-9-38-7-14 2-23 8-34-4-8-9-15-21-23-29-4-5-12-8-17-11-7-5-16-14-24-16-15-4-28 5-43-2-8-3-10-7-17-5-10 2-9 9-18 2-5-4-7-12-13-15-6-2-17 3-22 0-6-3-6-15-11-19s-18-5-25-7v119c0 5-3 30 1 34h669c23 0 49 3 72 0 8-1 6 2 8-4 3-5 0-19 0-25V387c0-2 2-13 0-15-6-6-22 3-27 6z" class="cls-11"/><path d="M705 486a13 13 0 016 1c1-3-3-10-3-11l5-17c2 5-2 13 0 17 2 3 5-11 6-12 2-1-1 13 0 13l3-7c2 0-2 16 2 14 3-1-1-23 4-14l-2-7h5c3 3 0 4 1 8 1 0 3-4 4-3 2 1-1 8 0 10 2-1 7-17 12-13 3 2-9 8-1 9a8 8 0 01-4 5c6 1 0 4 1 9 0 0 9-14 10-10a6 6 0 01-2 4 4 4 0 013 1c1 1-6 4-7 6 2 0 7-3 6 1-2 1-7 2-8 4 1-1 13-1 12 4 0 2-7 1-8 2a6 6 0 014 1c0 2-1 2-3 2a7 7 0 014 3h-13a4 4 0 012 3c-3 1-5-3-7-2-5 2-4 4-8 7-2 2 2 7-3 6-2 0-4-8-4-8-3-9-5-12-11-18l-6-8zM415 436s-2-16 3-12c3 2-3 6 3 5 0-2 2-4 1-5-1-2-4-2-4-5l5-3c1-2 0-6-1-8 0-2-2-16 0-17l4-2 1 14c3 0 3-6 3-8 1 0 6-1 5-2 5 5-9 12-8 16 1 0 4-5 4-2 2-2 2-6 6-5-2 2-2 3 0 5l-7 4c2 1-3 3-4 6 3 0 1 11 1 17 3-2 1-17 6-14 0-10 13-12 5-4 5 0-1 5-2 5 4 1 0 7-2 10 5-3 8-6 12 0 1 2-7 2-6 2a3 3 0 012 2l-9 2q6 3-2 3c3 3 1 3-2 4l2 4c-2 7-9 4-12 1-1-1-5-12-4-13zM811 448s-2-17 3-13c3 3-3 7 3 6l1-5c-1-2-4-2-4-6 0 2 5-1 5-2 1-2 0-6-1-8 0-2-2-16 0-17l4-2 1 14c3 0 3-6 3-8l5-2c5 4-9 12-8 16 1 0 4-5 4-2 2-2 2-6 6-5-2 1-2 3 0 5l-7 4c2 1-3 3-4 5 3 0 1 12 1 18 3-2 1-18 6-14 0-10 13-12 5-4 5 0-1 4-2 5 4 1 0 7-2 10 5-3 8-6 12 0 1 2-7 2-6 2a3 3 0 012 2l-9 2q6 3-2 3c3 2 1 3-2 4l2 4c-2 7-9 3-12 1l-4-13zM251 342c0 13 12 21 11 32-1 1-5-1-5 1s3 3 3 4l2 13c2 1 5-7 6-9s5-1 6-3l2-6c3-6 4-6 10-11 4-2 11-3 1-5 1-5 12-16 3-16a7 7 0 000-6l-8 12v-5c-2 0-2 7-4 6 1-8 4-15-5-18-2 7 0 5-5 12a3 3 0 00-2-5l-1 8c-6-1 2-14 2-16-4 3-9 7-9 11 0 2 4 10 3 11-5 5-7-15-8-16a7 7 0 00-2 6zm30 11l4-4c6 7-15 19-4 4zm-12-2c-2-3-1-5 2-7 0-2 2 11-2 7zm0 10q2 7-2 5c-1-3 1-3 2-5zm3 3c2 3 1 9-1 13-1-3 0-10 1-13zm1-18a14 14 0 012-5c1 1 2 14-2 11a9 9 0 010-6zm-8 29c-1 0 2-4 4-4 0 1-1 8-3 7a3 3 0 01-1-3zM495 483c0-3-3-5-3-9 0 0 2-19-4-9a3 3 0 00-4-2c5-15 3-15-6-4 2-6-11 8-7 3 0-11-9 4-10 7-1-6-4 4-4 5-8-2 0 13 2 15 5 6 5 6 13 7 8 0 23-4 23-13zM396 396c1-2-9 7-10 7 0-10 6-5 9-11a9 9 0 00-5 0c1-1 6-3 4-6-3-3-5 3-7 3-4 1 3-8 3-9-10-6-7 1-10 6-4-4-10 18-15 16 0-4 10-12 10-15s-7 4-8 5c0-3 5-16 2-17a6 6 0 00-3 4c-4-5 0 0-6-2-2 4 4 12 3 17 0-2-2-9-4-10-4-5-2 1-8 0-2 4 6 6 7 9l-8-5c-4 6 5 8-5 5 0 4 7 6 5 10 0 0-5-6-6-2 0 5 12 7 9 14-7-2-4-8-11-9a4 4 0 002 5s-8-3-7 0c3 6 13 8 16 12 4 4 9 14 16 15 2-6 0-7 7-9 2-1 15 0 8-3a10 10 0 006-6c-2-1-5 3-8 2 0-1 16-15 13-17-1-1-4 4-5 5 1-2 11-17 6-14zm-42 0l4 4q-4 1-4-4zm6 20l-1 4c-4-4-3-24 3-11a3 3 0 00-4-1c-1 1 2 6 2 9zm9 11c-5 10-10-10-2-5 2 1 3 1 2 5zm-1-13l-1 2c-1-4 1-8 4-11 4 4 0 6-3 9zm7 7c-4 7-2-3-2-3-1-1 6-3 2 3zm0-15c-4 3 2-9 2-8l6-10c1 6-3 14-8 18zm9-8a10 10 0 01-5 10c0-4 2-8 5-10zm2 12c-1 2-6 6-8 4 2-4 7-6 10-9zM338 380a4 4 0 00-4 0v-6c-3-1-1 6-4 7 2-1 2-2 1-3-2 0-4 3-5 3l-1-4c3 1-9 11-10 11-3 3-1 6-6 8l-1-10c2-3 8-4 8-4 0-2-3-2-4-2a5 5 0 002-3c0-2-4 2-5 3 0-2 13-11 13-11 2-1 4 2 5 1 2-1-1-4-2-4q3-1 3-3a5 5 0 00-5 2l-2-8c-3-1-1 7 0 7-1 0-1-5-3-5-1 0 4 11-3 13q2-2 0-3l-6 7c-1-3 3-10 0-10-1-1-1 1-1 2a4 4 0 00-1-4c-3-1-1 9-1 11 0-2-2-3-3-2 0 0 4 8 3 11l-4-6c-3 0 1 6 0 5a2 2 0 00-3 1c0 4 9 0 7 8 0 0-5-8-3-2-1 0-6-6-7-4a7 7 0 003 3c-1 0-4-1-4 1-1 2 9 3 10 4 3 4 0 7-2 12a3 3 0 00-1-3s-1 15 0 15c0 0 4-16 10-17 5 0 1 6 4 6-2 0 4-3 3-3 3-3-4-4-5-4q2-2 0-4l-7 6c6-14 12 0 14-1s1-4 0-5c6-3 4 8 5 7v3c1 1 2-1 2-1l2 5c3 0 1-3 1-4h2s-6-8-6-10c0 1 3 3 4 1s-4-3-6-3l6-5a2 2 0 00-2-1v-4c-3-1-3 9-6 9a2 2 0 001-3c-1-1-5 4-8 3 0 0 7-1 5-3a8 8 0 00-5 0c3-5 5 0 8-1 1 0 0-4 3-6 2-1 12 0 11-3z" class="cls-11"/><path d="M481 469a13 13 0 00-6 1c-1-3 3-10 3-11s-3-17-5-17c-2 5 2 13 0 17-2 3-5-11-6-11-2-1 1 12 0 13l-2-8c-3 0 1 16-3 14-3-1 1-23-4-14l2-6-5-1c-3 3 0 4 0 8-2 1-3-4-5-3s1 8 0 10c-1-1-7-17-12-13-3 2 10 8 1 9a8 8 0 004 6c-6 0 0 3-1 8 0 0-9-13-10-10a6 6 0 002 5 4 4 0 00-3 0c-1 2 7 4 7 6-2 0-7-3-6 1 2 1 7 2 8 5-1-2-13-2-12 3 1 2 7 1 9 2a6 6 0 00-5 1c0 2 1 2 3 2a7 7 0 00-4 3h14a4 4 0 00-3 3c3 1 5-3 8-2 5 2 3 4 7 7 2 2-2 7 3 6 2 0 4-8 4-8 4-9 5-12 11-18l6-8zM981 327c-1 0-3 20-9 15-1-1 4-8 4-10-1-4-5-9-9-12 0 2 8 15 2 16l-2-8a3 3 0 00-1 5c-5-7-4-4-5-12-9 3-7 10-6 19-2 0-1-7-3-7v5c-3-3-5-9-8-11a7 7 0 00-1 5c-8 0 3 11 4 16-9 2-4 2-1 5 7 6 8 3 11 11l1 5 7 4c2 2 5 10 7 9l2-13 2-5h-5c-3-12 20-26 10-37zm-25 24c-3 4-10-9-7-12 1 2 10 8 7 12zm6-12v-5c6 4 1 10 0 5zm3 12a7 7 0 012 6c-3 0-2-3-2-6zm-2 6v10c-3-5-3-7-2-13a4 4 0 012 3zm-2-15c-4 3-3-10-3-11 1 2 6 9 3 11zm7 26c-3 1-3-6-3-6 2-1 6 5 3 6zm-1-19c-8-1 1-6 1-6s5 7-1 6zM503 479c1-3 5-4 6-7 0 0 5-17 7-6a3 3 0 014-1c1-14 4-13 7 0 1-6 6 11 4 5 5-10 6 6 6 10 4-5 2 4 2 6 7 1-11 15-18 14-8-1-22-13-18-21zM633 476c3 5 7 7 9 12-1 0-4-5-5-4-3 2 13 15 13 17-3 1-6-4-8-2a10 10 0 006 6c-7 2 6 1 8 2 6 2 5 4 7 9 7-1 12-10 16-15 3-3 13-6 15-11 2-4-7-1-6-1a4 4 0 002-5c-7 2-4 7-11 9-3-6 9-8 8-14 0-4-5 2-6 2-2-4 6-5 5-10-9 3 0 1-4-4l-8 4c1-3 9-4 7-8-6 0-4-5-8-1-2 2-4 8-4 10-1-4 5-13 3-16-6 1-2-3-6 2a6 6 0 00-3-4c-3 0 2 14 2 16-1-1-7-7-8-4s10 10 9 15c-4 1-11-20-15-17-2-4 1-11-9-5 0 0 6 9 2 9-2-1-4-6-6-3-2 2 3 4 4 5a10 10 0 00-5 0c3 7 9 2 9 12-1-1-16-13-13-6zm44 2h-3a22 22 0 013-4v4zm-6 13c1-1 4-2 3-4a3 3 0 00-4 0c6-13 7 8 3 12l-2-8zm-7 9c7 2 4 8 2 7 0 0-8-8-2-7zm-3-10c-2-3-2-4 0-6 3 2 5 7 4 11a57 57 0 00-4-5zm-6 7c2-7 4 2 4 2 5 4-5 3-4-2zm0-17c-4-5-7-7-6-14 1 3 12 14 9 18q-3 1-3-4zm-6-3a13 13 0 014 9 10 10 0 01-4-9zm-5 7c3 2 8 5 10 8-5 4-9-5-10-8zM876 383l7 9s-4-4-5-2c0 5 10 8 11 12-2 1-4-2-6-1 1 4 6 3 3 6l9 1c4 2 3 2 5 6 4 0 11-9 14-12l10-8c2-3-5-1-5-1a4 4 0 002-4c-6 2-3 6-9 8-2-6 7-7 7-12 0-3-5 2-5 2-1-3 4-5 4-8-8 3 0 1-4-4l-6 4c1-2 7-4 6-7-4 0-3-3-5-2s-4 8-4 10c-1-4 3-10 1-13-4 1-1-2-4 1a5 5 0 00-3-3c-2 1 2 11 2 13 2 3-5-6-6-3-1 2 7 8 7 12-4 1-9-16-12-13-1-4 1-10-7-5 0 0 5 7 2 7-2 0-3-5-5-2a5 5 0 003 4 7 7 0 00-4 0c2 5 7 1 7 9 0 0-13-9-10-4zm34 1l-2 1a17 17 0 013-4l-1 3zm-4 11c0-1 3-2 2-4a2 2 0 00-3 1c5-11 5 6 2 9l-1-6zm-5 7c6 2 1 4 1 5s-7-6-1-5zm-3-8c-2-2-2-3 0-5 2 2 4 6 3 9a44 44 0 00-3-4zm-5 5c2-5 6 5 3 5a10 10 0 01-3-5zm0-13c-3-4-5-6-5-11 1 3 10 11 8 14-2 1-3 0-3-3zm-5-3a10 10 0 013 8c-3-3-2-5-3-8zm-4 6c3 2 7 4 8 7-3 3-7-4-8-7zM758 456a4 4 0 014 0v-6c3-1 1 6 4 7-2-1-2-2-1-3 2 0 3 3 5 3-1-1 0-3 1-4-3 1 9 11 10 11 3 3 1 6 6 8v-10c-1-3-7-4-7-4 0-2 3-2 4-2a5 5 0 01-2-3c0-2 4 2 5 3l-13-11c-2-1-4 2-6 1s2-4 3-4q-3-1-3-3a5 5 0 015 2l2-8c3 0 0 7 0 8 1-1 1-6 3-6 1 0-4 11 3 13v-3l6 7c1-3-3-9-1-10s2 1 2 2a4 4 0 011-4c3-1 1 9 0 11 1-2 2-3 4-2 0 1-4 8-3 11l4-6c3 0-1 6 0 5a2 2 0 013 1c0 4-9 0-7 8 0 0 5-8 3-2 1 0 6-6 7-4a7 7 0 01-3 4c1-1 4-2 4 0 1 2-9 3-10 4-3 4 0 7 2 12a3 3 0 011-3s1 15 0 15c0 0-4-16-10-17-5 0-1 6-4 6 2 0-4-3-3-2-3-4 4-5 5-5v-4l7 6c-6-14-12 0-14-1-3-1-1-4 0-5-6-3-4 8-5 7v3c-1 1-2-1-2-1l-3 5c-2 0 0-3 0-4h-2l6-9s-3 2-4 0 4-3 5-3l-5-5a2 2 0 012-1v-4c3-1 3 9 6 9a2 2 0 01-1-3c1-1 5 4 8 3 0 0-7-1-5-3a8 8 0 015 0c-3-5-5 0-9-1 0 0 1-4-2-6-2 0-12 0-11-3zM744 414c2-3-5-7-8-7-8-3-17-4-25-3-4 0-9-12-15-11-3 0-2 3-4 5s-5 3-5 7a12 12 0 014 1l-12 2s-11-7-10 0l5 1c-5 1-8 2-13 0-3-1-9-6-12-5-8 2 0 5 0 9 0 3-5 9-2 12s17-8 24-6c-6-2-4 3-4 3-7 15 14 0 12-1a158 158 0 0016 3c-4 1-6 6-3 9 4 4 6-4 8-6 7-4 19-2 28-5 6-1 12-4 16-8zm-36-10zm-30 4zm-1 0zm0 13h1zm-5-1h1zm3 0zM958 293c4-4-25-7-23-7-3 0-6-8-10-7-2 0-1 3-3 3s-3 3-3 5a10 10 0 013 1l-8 1c-1 0-8-5-7 1h3c-13 3-19-11-18 4 2 16 0-2 16 3h-4l2 6h2l5-4 12 1c-3 1-4 7-3 7l6-5c5-1 13-1 19-3 4-1 8-3 11-6zm-24-7h-1zm-21 3zm-1 0zm0 9zm-3-1zm1 1h1zM533 403c2-2-4-5-5-5a49 49 0 00-18-2c-6-7-13-9-16 1a10 10 0 013 0l-8 2s-8-5-7 0c1 0 6 0 4 1-13 3-19-12-18 3 2 17-1-1 15 3l-3 1c0 1 0 5 2 6l2-1 5-3 11 1c-4 2-3 8 0 6 3-10 24-5 33-13zm-24-7zm-22 3zm1 0zm0 0zm0 9zm-3-1zm1 0h1zM366 341c1-2-4-4-6-5a49 49 0 00-17-2c-3 0-6-8-10-8l-3 4c-2 1-3 3-3 5a10 10 0 013 0l-8 2s-8-5-7 0h4c-13 4-20-11-18 4 1 17-1-1 15 3l-3 1c0 1 0 4 2 6l1-1c1 1 6-4 6-4l11 2c-4 2-3 8 0 6 3-10 24-5 33-13zm-24-7zm-21 3zm0 0zm-1 8l1 1zm-3 0h1zm2 0zM256 297c-3-3-7-6-11-7-1-1-3-4-5-4-1 2-8 4-8 7a6 6 0 001 0c-3 2-7-2-9-3 0-1 2 12-1 11 3 1 11-7 8-2a6 6 0 000 3c11-1-1-2 10-2-3 2-1 0-2 3 5-2 1-3 6-3v2l11-5zm-12-7zm-1 0zm0 0zm-3 1zm1 0zm0 0zm0 0h1zm1 0zm0 0zm1 0zm-3 0zm-1 1zm-1 0h1zm1 0zm-1 0zm0 0zm0 0zm0 0zm-1 0zm0 0zm0 0zm-1 0h1zm0 0zm0 0zm0 0zm-1 1zm0 0zm0 0zm-1 0h1zm0 0zm0 0zm0 0zm11-3zm-1 0zm0 0zm-5 2zm0 0zm0 0zm-6 1zm1 0h-1zm-1 6zm0-1zm0 0zm22 0zM293 283c-4-5-15-14-20-14-2 5-10 3-11 8a8 8 0 002 1c-5 3-9-3-13-5 0 1 3 16 0 14 4 3 8-6 12-3l-2 1a8 8 0 000 5c8-1 4-3 12-3-3 2 0 0-2 4 6-3 2-4 8-5v4l14-7zm-16-9zm-1 0zm1 0zm-4 1zm0 0zm1 0zm0 0zm1 0zm0-1zm1 0zm-4 1zm-1 1zm-1 0h1zm1 0zm-1 0zm-1 0zm1 0zm0 0zm-1 0zm-1 0h1zm0 0zm0 0zm-1 1l1-1zm0 0zm0 0zm-1 0h1zm0 0zm0 0zm-1 0zm0 0zm0 1v-1zm-1 0zm14-4zm0 0zm0 0zm-7 2zm0 0zm0 0zm-7 2zm0 0zm0 7zm0-1zm0 1zm28-1h-1zM278 309c-2-3-6-7-9-7l-4 4c-1 1-4-1-5-2 0 5 3 9 4 5a17 17 0 006 1c-1 1-2 0-1 2 2-1 0-2 3-2a1 1 0 000 1l3-1a8 8 0 003-1zm-7-4zm0 0zm0 0zm-2 0zm1 0zm0 0zm0 0zm0 0zm0 0zm1 0zm-2 0zm0 0zm-1 0zm0 0zm0 0zm0 0zm0 0zm0 0zm0 1zm-1 0h1zm0 0zm0 0zm0 0zm0 0zm0 0zm0 0zm-1 0zm0 0zm0 0zm0 0zm0 0zm0 0zm6-2zm0 0zm-1 0zm-2 1zm0 0zm0 0zm-4 1zm1 0h-1zm-1 3zm0 0zm0 0zm13 0h-1zM238 279c-2-2-6-6-9-6l-4 4c-2 1-4-1-5-2 0 5 2 8 4 5 0 0 0 3 3 0-1 0-84 1 2 1v1l1-1 2-1v2c3-1 0-2 3-2a4 4 0 003-1zm-7-4zm0 0zm0 0zm-2 0zm0 0h1zm1 0zm0 0zm0 0zm0 0zm0 0zm-1 1zm-1 0zm0 0zm0 0zm0 0zm0 0zm0 0zm0 0zm0 0zm-1 0h1zm0 0zm0 0zm0 0zm0 0zm0 0zm-1 0h1zm0 0zm0 0zm0 0zm0 0zm0 0zm0 0zm6-1zm-1 0zm0 0zm-3 1zm1 0zm0 0zm-4 1zm0-1zm0 3zm0 0zm0 0zm13 0h-1zM277 261c-2-2-6-6-9-6l-4 4c-1 1-4-1-5-3v7c2 0 6-3 5-1-1 0 0 3 2 0h3c-1 1-2 1-1 2l3-2a1 1 0 000 2l6-3zm-7-4zm0 0zm0 0zm-2 0h1zm1 0zm0 0zm0 0zm0 0zm1 0zm0 0zm-2 0zm0 1zm-1 0h1zm1 0zm-1 0zm0 0zm0 0zm0 0zm0 0zm0 0zm-1 0h1zm0 0zm0 0zm0 0zm0 0zm0 0zm-1 0h1zm0 0zm0 0zm0 0zm0 0zm0 0zm6-1zm0 0zm0 0zm-3 0zm0 0zm0 0zm0 0zm-3 1h-1zm0 0zm0 3zm-1 0zm0 0zm13 0zM303 299c-2-3-6-6-9-7l-4 4c-2 1-4-1-5-2 0 6 2 9 4 5a17 17 0 005 1v2c2-1 0-2 3-2a1 1 0 000 2l3-2a5 5 0 003-1zm-7-4zm0 0zm0 0zm-2 0zm0 0zm1 0zm0 0zm0 0zm0 0zm0 0zm-1 0zm-1 0zm0 0zm0 0zm0 0zm0 0zm0 0zm0 0zm-1 1h1zm0 0zm0 0zm0 0zm0 0zm0 0zm0 0zm-1 0zm0 0zm0 0zm0 0zm0 0zm0 0zm-1 0h1zm7-2zm-1 0zm0 0zm-3 1zm0 0zm0 0zm-3 1zm0 0zm0 3zm0 0zm0 0zm12 0z" class="cls-11"/><path d="M335 312c-3-4-11-10-14-10l-7 6c-2 2-6-1-8-3v10c1 2 9-6 7-2a5 5 0 000 4l4-3s-189 2 4 0c-2 2-1 1-1 3 4-1 1-2 5-3a2 2 0 000 3l10-5zm-11-6zm-1 0zm1 0zm-3 0zm0 0zm0 0h1zm1 0zm0 0zm1 0zm0 0zm-3 0h1zm0 1zm-1 0zm0 0zm0 0zm-1 0h1zm1 0zm0 0zm-1 0zm0 0zm0 0zm-1 0h1zm0 0zm0 0zm0 1v-1zm-1 0h1zm0 0zm0 0zm0 0zm-1 0zm0 0zm0 0zm10-2zm-1 0zm0 0zm-4 1zm0 0zm0 0zm-5 1zm0 0zm0 5zm-1 0zm1 0zm19-1z" class="cls-11"/></g></g></svg>