<svg xmlns="http://www.w3.org/2000/svg" xmlns:xlink="http://www.w3.org/1999/xlink" viewBox="0 0 1000 400"><defs><style>.NEON-ROAD-STROKE-1,.NEON-ROAD-STROKE-10,.NEON-ROAD-STROKE-11,.NEON-ROAD-STROKE-12,.NEON-ROAD-STROKE-13,.NEON-ROAD-STROKE-4,.NEON-ROAD-STROKE-5,.NEON-ROAD-STROKE-6,.NEON-ROAD-STROKE-7,.NEON-ROAD-STROKE-8,.NEON-ROAD-STROKE-9{fill:none;stroke:#30c;stroke-miterlimit:10;}.NEON-ROAD-STROKE-2{isolation:isolate;}.NEON-ROAD-STROKE-3{clip-path:url(#clip-path);}.NEON-ROAD-STROKE-11,.NEON-ROAD-STROKE-4{opacity:0.5;}.NEON-ROAD-STROKE-10,.NEON-ROAD-STROKE-11,.NEON-ROAD-STROKE-12,.NEON-ROAD-STROKE-13,.NEON-ROAD-STROKE-4,.NEON-ROAD-STROKE-6,.NEON-ROAD-STROKE-9{mix-blend-mode:soft-light;}.NEON-ROAD-STROKE-5{mix-blend-mode:color-dodge;}.NEON-ROAD-STROKE-6{opacity:0.96;}.NEON-ROAD-STROKE-7{mix-blend-mode:screen;}.NEON-ROAD-STROKE-8{opacity:0.6;mix-blend-mode:multiply;}.NEON-ROAD-STROKE-12,.NEON-ROAD-STROKE-9{opacity:0.2;}.NEON-ROAD-STROKE-11,.NEON-ROAD-STROKE-12,.NEON-ROAD-STROKE-13{fill-rule:evenodd;}</style><clipPath id="clip-path"><rect class="NEON-ROAD-STROKE-1" width="1000" height="400"/></clipPath></defs><title>Neon Road Stroke</title><g class="NEON-ROAD-STROKE-2"><g id="city"><g class="NEON-ROAD-STROKE-3"><rect class="NEON-ROAD-STROKE-1" width="1000" height="400"/><polygon class="NEON-ROAD-STROKE-1" points="1030.33 89.65 1017.86 42.23 270.64 239.79 247.87 226.5 186.57 -11.91 140.15 0.3 201.45 238.71 188.16 261.49 -87.5 343 -75.03 390.43 190.78 311.5 226 332.05 264.44 478.21 310.86 466 272.42 319.84 292.97 284.62 1030.33 89.65"/><rect class="NEON-ROAD-STROKE-1" x="266.81" y="323.05" width="2" height="151.7" transform="translate(-96.52 85.68) rotate(-15.44)"/><rect class="NEON-ROAD-STROKE-1" x="191.33" y="-10.35" width="2" height="246.69" transform="translate(-22.4 52.57) rotate(-14.72)"/><rect class="NEON-ROAD-STROKE-1" x="271.19" y="160.99" width="765.16" height="2" transform="matrix(0.97, -0.25, 0.25, 0.97, -19.7, 171.7)"/><circle class="NEON-ROAD-STROKE-1" cx="233.87" cy="279.45" r="21.83" transform="translate(-105.14 145.81) rotate(-28.56)"/><circle class="NEON-ROAD-STROKE-1" cx="233.87" cy="279.45" r="20.24" transform="translate(-125.36 340.62) rotate(-59.74)"/><polygon class="NEON-ROAD-STROKE-1" points="-86.94 369.89 -87.47 367.96 187.47 287.7 188 289.63 -86.94 369.89"/><polygon class="NEON-ROAD-STROKE-4" points="292.97 284.62 270.64 239.79 490.53 182.53 504.7 227 292.97 284.62"/><polygon class="NEON-ROAD-STROKE-1" points="226 332.05 223.22 330 261 478.21 264.44 478.21 226 332.05"/><rect class="NEON-ROAD-STROKE-5" x="243.25" y="325.43" width="16.54" height="154.98" transform="translate(-97.64 80.9) rotate(-15.34)"/><rect class="NEON-ROAD-STROKE-1" x="155.94" y="288.26" width="883.79" height="54" transform="translate(-62.13 169.53) rotate(-15.35)"/><rect class="NEON-ROAD-STROKE-1" x="155.94" y="314.26" width="883.79" height="2" transform="translate(-62.13 169.54) rotate(-15.35)"/><polygon class="NEON-ROAD-STROKE-5" points="664.68 268.37 669.73 278.3 190.51 411.42 187.73 400.53 664.68 268.37"/><polygon class="NEON-ROAD-STROKE-5" points="208.03 451.44 202.98 441.52 682.2 308.4 691.1 317.6 208.03 451.44"/><rect class="NEON-ROAD-STROKE-1" x="819.83" y="214.51" width="3.03" height="28" transform="translate(815.4 1081.02) rotate(-105.15)"/><rect class="NEON-ROAD-STROKE-1" x="816.45" y="218.91" width="3.03" height="21.02" transform="translate(810.24 1078.92) rotate(-105.15)"/><rect class="NEON-ROAD-STROKE-1" x="983.02" y="221.46" width="3.03" height="28" transform="translate(1014.49 1247.32) rotate(-105.15)"/><rect class="NEON-ROAD-STROKE-1" x="979.64" y="225.87" width="3.03" height="21.02" transform="matrix(-0.26, -0.97, 0.97, -0.26, 1009.36, 1245.22)"/><rect class="NEON-ROAD-STROKE-1" x="432.56" y="364.1" width="3.03" height="45.05" transform="translate(174.29 906.64) rotate(-105.15)"/><rect class="NEON-ROAD-STROKE-1" x="449.78" y="377.29" width="3.03" height="9.36" transform="translate(200.51 917.39) rotate(-105.15)"/><rect class="NEON-ROAD-STROKE-1" x="420.95" y="379.26" width="3.03" height="21.02" transform="translate(156.62 899.41) rotate(-105.15)"/><rect class="NEON-ROAD-STROKE-1" x="575.06" y="272.24" width="3.03" height="45.05" transform="translate(442.7 928.33) rotate(-105.15)"/><rect class="NEON-ROAD-STROKE-1" x="592.28" y="285.42" width="3.03" height="9.36" transform="translate(468.92 939.07) rotate(-105.15)"/><rect class="NEON-ROAD-STROKE-1" x="563.46" y="287.4" width="3.03" height="21.02" transform="translate(425.03 921.09) rotate(-105.15)"/><rect class="NEON-ROAD-STROKE-1" x="232.62" y="375.12" width="3.03" height="28" transform="matrix(-0.26, -0.97, 0.97, -0.26, -80.3, 716.79)"/><rect class="NEON-ROAD-STROKE-1" x="229.25" y="379.53" width="3.03" height="21.02" transform="translate(-85.43 714.69) rotate(-105.15)"/><polygon class="NEON-ROAD-STROKE-6" points="201.17 452.16 398.83 399.51 382.81 347.41 187.17 400.45 201.17 452.16"/><polygon class="NEON-ROAD-STROKE-6" points="484.85 374.75 515.34 365.99 496.71 314.22 470.82 321.24 484.85 374.75"/><path class="NEON-ROAD-STROKE-7" d="M221,52.84V77L618.3,60.25A95.25,95.25,0,0,0,687.51,26L710-1,679.33-3Z"/><polygon class="NEON-ROAD-STROKE-1" points="221 52.84 221 55.67 458.13 46.67 458.67 43.56 221 52.84"/><path class="NEON-ROAD-STROKE-1" d="M677.56,9.18,601.81,37v6.57S656.25,46.75,680,13.25Z"/><path class="NEON-ROAD-STROKE-1" d="M206.5,0,221,52.84,619.69,37.27A80.17,80.17,0,0,0,683.81.82L685-1Z"/><polygon class="NEON-ROAD-STROKE-1" points="222.17 0 233.88 43.56 433.33 36.99 431.33 -0.26 222.17 0"/><rect class="NEON-ROAD-STROKE-1" x="448.2" y="4.59" width="74.92" height="31.46" transform="translate(-0.05 1.31) rotate(-0.15)"/><rect class="NEON-ROAD-STROKE-1" x="453.8" y="9.93" width="63.73" height="20.78" transform="translate(-0.05 1.31) rotate(-0.15)"/><polygon class="NEON-ROAD-STROKE-1" points="303.48 353.56 293 317.49 304.5 297.65 618.5 214.67 639.87 260.56 303.48 353.56"/><polygon class="NEON-ROAD-STROKE-7" points="304.5 297.65 298.85 270.75 475.49 224.34 483.72 250.29 304.5 297.65"/><polygon class="NEON-ROAD-STROKE-1" points="304.5 297.65 298.85 290.77 616.26 206.73 618.5 214.67 304.5 297.65"/><polygon class="NEON-ROAD-STROKE-1" points="298.85 290.77 283.83 318.5 293 317.49 304.5 297.65 298.85 290.77"/><polygon class="NEON-ROAD-STROKE-7" points="483.72 250.29 475.42 224.42 611.2 188.75 618.5 214.67 483.72 250.29"/><polygon class="NEON-ROAD-STROKE-7" points="474.19 306.7 477.85 320.14 298.85 369.74 294.38 356.38 474.19 306.7"/><polygon class="NEON-ROAD-STROKE-1" points="303.91 355.03 294.99 357.92 283.83 318.5 293 317.49 303.91 355.03"/><polygon class="NEON-ROAD-STROKE-1" points="301.91 355.57 646.67 261.67 639.87 260.56 303.48 353.56 301.91 355.57"/><polygon class="NEON-ROAD-STROKE-1" points="623.57 204.8 618.5 214.67 639.87 260.56 651 266.5 623.57 204.8"/><polygon class="NEON-ROAD-STROKE-1" points="479.7 242.89 483.72 250.29 618.5 214.67 616.26 206.73 479.7 242.89"/><rect class="NEON-ROAD-STROKE-1" x="483.9" y="245.26" width="124.56" height="31.46" transform="translate(-49.38 152.67) rotate(-15.23)"/><rect class="NEON-ROAD-STROKE-1" x="490.85" y="250.14" width="110.66" height="21.7" transform="translate(-49.38 152.67) rotate(-15.23)"/><rect class="NEON-ROAD-STROKE-1" x="352.87" y="293.79" width="110.66" height="21.7" transform="translate(-65.7 117.95) rotate(-15.23)"/><rect class="NEON-ROAD-STROKE-1" x="496.07" y="269.87" width="12.6" height="11.61" transform="translate(-54.78 141.68) rotate(-15.23)"/><rect class="NEON-ROAD-STROKE-7" x="467.5" y="215.15" width="9.43" height="132.68" transform="translate(-57.37 133.96) rotate(-15.23)"/><rect class="NEON-ROAD-STROKE-1" x="467.19" y="254.3" width="9.43" height="52.08" transform="translate(-57.08 133.84) rotate(-15.23)"/><rect class="NEON-ROAD-STROKE-1" x="511.08" y="265.78" width="12.6" height="11.61" transform="translate(-53.18 145.48) rotate(-15.23)"/><rect class="NEON-ROAD-STROKE-1" x="528.2" y="260.73" width="67.64" height="4.03" transform="translate(-49.29 156.9) rotate(-15.23)"/><polygon class="NEON-ROAD-STROKE-1" points="528.86 269.69 540.57 266.5 541.71 270.37 529.92 273.58 528.86 269.69"/><polygon class="NEON-ROAD-STROKE-1" points="483.04 303.31 485.26 311.44 651 266.5 639.87 260.56 483.04 303.31"/><polygon class="NEON-ROAD-STROKE-7" points="168.43 245.02 174.4 271.84 -1.67 320.4 -10.21 294.55 168.43 245.02"/><polygon class="NEON-ROAD-STROKE-1" points="155.91 136.54 179.68 225.03 168.43 245.02 -144.54 331.81 -207 158.98 155.91 136.54"/><polygon class="NEON-ROAD-STROKE-1" points="168.43 245.02 174.16 251.82 -142.21 339.72 -144.54 331.81 168.43 245.02"/><polygon class="NEON-ROAD-STROKE-1" points="174.16 251.82 188.84 223.91 179.68 225.03 168.43 245.02 174.16 251.82"/><polygon class="NEON-ROAD-STROKE-1" points="168.32 187.64 177.2 184.63 188.84 223.91 179.68 225.03 168.32 187.64"/><polygon class="NEON-ROAD-STROKE-1" points="171.46 186.57 157.17 135.33 153.84 136.67 168.76 189.09 171.46 186.57"/><rect class="NEON-ROAD-STROKE-1" x="-109.66" y="189.87" width="124.56" height="31.46" transform="matrix(-0.97, 0.25, -0.25, -0.97, -41.34, 416.5)"/><rect class="NEON-ROAD-STROKE-1" x="-102.7" y="194.75" width="110.66" height="21.7" transform="matrix(-0.97, 0.25, -0.25, -0.97, -41.34, 416.5)"/><rect class="NEON-ROAD-STROKE-1" x="9.32" y="228.44" width="110.66" height="21.7" transform="translate(192.49 451.65) rotate(164.07)"/><rect class="NEON-ROAD-STROKE-1" x="93.58" y="152.9" width="58.52" height="21.7" transform="translate(281.22 293.43) rotate(166.19)"/><rect class="NEON-ROAD-STROKE-1" x="96.95" y="155.18" width="51.78" height="17.13" transform="translate(281.22 293.43) rotate(166.19)"/><rect class="NEON-ROAD-STROKE-7" x="0.11" y="-32.58" width="9.43" height="498.42" transform="translate(213.22 157.27) rotate(75.38)"/><rect class="NEON-ROAD-STROKE-1" x="-5.63" y="43.67" width="9.43" height="348.92" transform="matrix(0.25, 0.97, -0.97, 0.25, 210.37, 163.94)"/><rect class="NEON-ROAD-STROKE-1" x="63.83" y="196.02" width="9.43" height="7.97" transform="matrix(0.25, 0.97, -0.97, 0.25, 244.76, 83.18)"/><rect class="NEON-ROAD-STROKE-1" x="24.15" y="189.09" width="67.64" height="4.03" transform="translate(161.8 361.71) rotate(165.55)"/><polygon class="NEON-ROAD-STROKE-1" points="91.23 184.62 79.47 187.65 78.38 183.77 90.22 180.72 91.23 184.62"/><polygon class="NEON-ROAD-STROKE-1" points="154.46 138.86 157.17 135.33 -68.44 147.02 -72.79 150.68 154.46 138.86"/><polygon class="NEON-ROAD-STROKE-1" points="-111.61 206.09 -115 205.6 9.18 173.37 8.92 174.67 -111.61 206.09"/><polygon class="NEON-ROAD-STROKE-8" points="571.85 160.19 605.03 202.3 653.98 189.5 617.54 147.24 571.85 160.19"/><polygon class="NEON-ROAD-STROKE-8" points="631.44 278.69 650.05 328.51 716.16 311.01 677.13 265.74 631.44 278.69"/><polygon class="NEON-ROAD-STROKE-8" points="678.58 131.95 702.12 176.8 751.06 164 714.63 121.73 678.58 131.95"/><path class="NEON-ROAD-STROKE-1" d="M850,0,793.66,19a56.94,56.94,0,0,0-33.81,77.05l2.37,5.33L1000,37.34V0Z"/><path class="NEON-ROAD-STROKE-1" d="M836,14.93,796.26,28.35A40.17,40.17,0,0,0,772.4,82.71l1.67,3.75L850,67.51Z"/><polygon class="NEON-ROAD-STROKE-7" points="762.22 101.39 777.56 128.15 863.98 107.32 855.7 76.22 762.22 101.39"/><polygon class="NEON-ROAD-STROKE-7" points="874.15 75.88 881.9 104.47 1000 71.72 1000 42.48 874.15 75.88"/><polygon class="NEON-ROAD-STROKE-1" points="762.22 101.39 763.5 104.83 856.73 80.09 855.7 76.22 762.22 101.39"/><rect class="NEON-ROAD-STROKE-7" x="848.1" y="-18.53" width="18.04" height="132.68" transform="translate(17.55 226.88) rotate(-15.23)"/><polygon class="NEON-ROAD-STROKE-1" points="868 61 990.5 29.83 983.5 0 868 -0.26 855.7 6.2 868 61"/><polygon class="NEON-ROAD-STROKE-1" points="837.09 4.36 855.7 76.22 872.28 71.75 852.64 0 837.09 4.36"/><polygon class="NEON-ROAD-STROKE-1" points="872.94 71.57 874.21 76.22 1000 42.48 1000 37.34 872.94 71.57"/><polygon class="NEON-ROAD-STROKE-1" points="869.25 60.68 870.22 64.24 994.17 33.17 990.5 29.83 869.25 60.68"/><polygon class="NEON-ROAD-STROKE-1" points="938.31 47.17 937.08 43.42 971.16 34.75 972.45 38.61 938.31 47.17"/><polygon class="NEON-ROAD-STROKE-1" points="975.78 37.78 974.67 33.86 981.17 32.33 982.91 35.99 975.78 37.78"/><polygon class="NEON-ROAD-STROKE-1" points="910.87 54.05 910.28 50.24 922.35 47.17 923.63 50.85 910.87 54.05"/><polygon class="NEON-ROAD-STROKE-7" points="185.24 329.09 180.16 311.94 26.91 356.38 32.76 374.01 185.24 329.09"/><path class="NEON-ROAD-STROKE-1" d="M212.81,340.31l11.88,39.21L9.46,433.27A177.17,177.17,0,0,1-87.6,409.46l-2.23-1.31,275.07-79.06Z"/><polygon class="NEON-ROAD-STROKE-1" points="185.24 329.09 185.06 323.75 -89.99 403.43 -87.59 409.46 185.24 329.09"/><polygon class="NEON-ROAD-STROKE-1" points="212.81 340.31 214.48 335.29 185.06 323.75 185.24 329.09 212.81 340.31"/><polygon class="NEON-ROAD-STROKE-1" points="224.69 379.52 227.58 377.34 214.48 335.29 212.81 340.31 224.69 379.52"/><polygon class="NEON-ROAD-STROKE-1" points="202.54 374.17 192.78 344.68 180.67 340.38 126.79 356.58 128.2 360.81 198 376.59 202.54 374.17"/><polygon class="NEON-ROAD-STROKE-1" points="198 376.59 189.06 348.53 181.14 345.37 128.2 360.81 136.62 391.78 198 376.59"/><polygon class="NEON-ROAD-STROKE-1" points="179.68 340.46 181.14 345.37 148.71 354.83 147.51 350.35 179.68 340.46"/><polygon class="NEON-ROAD-STROKE-1" points="146.27 355.54 144.85 351.15 132.87 354.75 134.35 359.02 146.27 355.54"/><polygon class="NEON-ROAD-STROKE-7" points="32.76 374.01 23.58 346.35 -96.36 383.77 -87.59 409.46 32.76 374.01"/><polygon class="NEON-ROAD-STROKE-1" points="32.76 374.01 30.46 368.4 -89.99 403.43 -87.59 409.46 32.76 374.01"/><polygon class="NEON-ROAD-STROKE-7" points="285.53 223.77 290.05 241.07 444.66 201.63 439.38 183.82 285.53 223.77"/><path class="NEON-ROAD-STROKE-1" d="M258.33,211.67l-20-74.61,226.25-11.71a177,177,0,0,1,96.23,26.94l2.2,1.38-277.49,70.1Z"/><polygon class="NEON-ROAD-STROKE-1" points="285.53 223.77 285.53 229.11 563.02 158.39 560.82 152.29 285.53 223.77"/><polygon class="NEON-ROAD-STROKE-1" points="258.33 211.67 256.5 216.63 285.53 229.11 285.53 223.77 258.33 211.67"/><polygon class="NEON-ROAD-STROKE-1" points="238.34 137.06 233.88 134.75 256.5 216.63 258.33 211.67 238.34 137.06"/><polygon class="NEON-ROAD-STROKE-1" points="267.19 162.42 275.25 194.5 287.78 200 346.25 187 345.08 182.4 272.2 160.21 267.19 162.42"/><polygon class="NEON-ROAD-STROKE-1" points="272.2 160.21 279.5 190.7 287.67 194.67 345.08 182.4 337.94 154.39 272.2 160.21"/><polygon class="NEON-ROAD-STROKE-1" points="288.83 200 287.67 194.67 322.83 187.15 323.76 192 288.83 200"/><polygon class="NEON-ROAD-STROKE-1" points="325.48 186.59 326.65 191.36 339.65 188.47 338.41 183.82 325.48 186.59"/><rect class="NEON-ROAD-STROKE-1" x="348.42" y="146.66" width="64.09" height="31.46" transform="translate(-26.61 88.81) rotate(-12.87)"/><rect class="NEON-ROAD-STROKE-1" x="353.21" y="152" width="54.52" height="20.78" transform="translate(-26.61 88.81) rotate(-12.87)"/><polygon class="NEON-ROAD-STROKE-7" points="439.38 183.82 447.66 211.76 568.75 178.25 560.82 152.29 439.38 183.82"/><polygon class="NEON-ROAD-STROKE-1" points="439.38 183.82 441.5 189.5 563.02 158.39 560.82 152.29 439.38 183.82"/><path class="NEON-ROAD-STROKE-1" d="M623.89,198.4a158.2,158.2,0,0,0-139-82.79c-2.17,0-4.37,0-6.54.13L-32.33,136.67-35,70.72,475.64,49.79c3-.12,6.07-.18,9.08-.18A224.47,224.47,0,0,1,681.88,166.89L813,408.1l-58,31.52Z"/><path class="NEON-ROAD-STROKE-1" d="M756.17,435.55,626.52,197a160.43,160.43,0,0,0-148.34-84.23L-29.46,133.55l-2.41-60L475.76,52.79A221.46,221.46,0,0,1,679.24,168.32L808.89,406.9Z"/><polygon class="NEON-ROAD-STROKE-9" points="304.61 56.68 273.94 124.01 -32.33 136.67 -34.99 70.72 304.61 56.68"/><path class="NEON-ROAD-STROKE-1" d="M780.78,422.18,651.12,183.6A188.23,188.23,0,0,0,477.05,84.77l-507.63,20.8-.16-4,507.63-20.8A193.47,193.47,0,0,1,654.64,181.69L784.29,420.27Z"/><polygon class="NEON-ROAD-STROKE-10" points="400.97 118.85 433.95 51.47 -34.99 70.72 -32.33 136.67 400.97 118.85"/><polygon class="NEON-ROAD-STROKE-1" points="565.05 259.84 566.42 263.64 595.18 255.81 594.13 251.92 565.05 259.84"/><polygon class="NEON-ROAD-STROKE-1" points="203.83 0 221 55.67 222.17 52.67 206.5 0 203.83 0"/><rect class="NEON-ROAD-STROKE-1" x="255.93" y="49.13" width="2.96" height="22.24" transform="translate(305.32 -199.74) rotate(87.27)"/><rect class="NEON-ROAD-STROKE-1" x="357.19" y="108.08" width="2.96" height="22.24" transform="translate(460.64 -244.74) rotate(87.27)"/><rect class="NEON-ROAD-STROKE-1" x="673.07" y="145.75" width="2.96" height="22.24" transform="translate(1331.81 -61.4) rotate(148.54)"/><rect class="NEON-ROAD-STROKE-1" x="776.08" y="334.03" width="2.96" height="22.24" transform="translate(1624.6 266.09) rotate(150.73)"/><rect class="NEON-ROAD-STROKE-1" x="673.07" y="277.55" width="2.96" height="22.24" transform="translate(1404.12 210.7) rotate(150.73)"/><rect class="NEON-ROAD-STROKE-1" x="555.3" y="121.06" width="2.96" height="22.24" transform="translate(921.03 -309.19) rotate(116.18)"/><polygon class="NEON-ROAD-STROKE-11" points="688.22 316.78 722.06 379.06 781.98 349.67 748.36 289.34 688.22 316.78"/><polygon class="NEON-ROAD-STROKE-12" points="737.05 268.41 665.25 275.67 650.25 247.57 723.75 243.46 737.05 268.41"/><polygon class="NEON-ROAD-STROKE-12" points="616.53 92.43 579.78 146.27 535.26 124.01 572.16 67.37 616.53 92.43"/><polygon class="NEON-ROAD-STROKE-1" points="725 400 691.1 333.22 445 401 725 400"/><polygon class="NEON-ROAD-STROKE-1" points="500 400.33 677.56 353.5 701.79 400 626.33 400.33 500 400.33"/><rect class="NEON-ROAD-STROKE-1" x="619.43" y="373.12" width="19.19" height="17.69" transform="translate(-78.26 178.69) rotate(-15.23)"/><polygon class="NEON-ROAD-STROKE-1" points="691.1 333.22 689 331.2 438.7 400.33 447.61 400.33 691.1 333.22"/><polygon class="NEON-ROAD-STROKE-7" points="442.33 400.5 434.04 374.64 679.19 308.07 691.1 333.22 442.33 400.5"/><path class="NEON-ROAD-STROKE-7" d="M234.21,260.56a5.68,5.68,0,1,1-2.36-7.67A5.66,5.66,0,0,1,234.21,260.56Z"/><path class="NEON-ROAD-STROKE-1" d="M230.49,257.91a1.3,1.3,0,1,1-1.3-1.31A1.3,1.3,0,0,1,230.49,257.91Z"/><path class="NEON-ROAD-STROKE-7" d="M244.58,303.16a5.68,5.68,0,1,1-2.37-7.67A5.68,5.68,0,0,1,244.58,303.16Z"/><path class="NEON-ROAD-STROKE-1" d="M240.86,300.51a1.31,1.31,0,0,1-2.61,0,1.31,1.31,0,1,1,2.61,0Z"/><path class="NEON-ROAD-STROKE-7" d="M218,286.77a5.68,5.68,0,1,1-2.37-7.68A5.69,5.69,0,0,1,218,286.77Z"/><path class="NEON-ROAD-STROKE-1" d="M214.32,284.12a1.31,1.31,0,0,1-2.61,0,1.31,1.31,0,1,1,2.61,0Z"/><path class="NEON-ROAD-STROKE-7" d="M258.33,275.05a5.68,5.68,0,1,1-2.37-7.68A5.69,5.69,0,0,1,258.33,275.05Z"/><path class="NEON-ROAD-STROKE-1" d="M254.61,272.39a1.31,1.31,0,1,1-1.3-1.3A1.31,1.31,0,0,1,254.61,272.39Z"/><path class="NEON-ROAD-STROKE-1" d="M930.19,424.85,872.44,456.8l-182.35-328-.17-.31a130.92,130.92,0,0,1-8.6-103.1A132.51,132.51,0,0,1,696.44-5.95a130.91,130.91,0,0,1,53.24-46.3l1.56-.75L783.1-64.34,805.24-2.17,776.78,8A65.43,65.43,0,0,0,752,29.83a66.58,66.58,0,0,0-8,16.28,65.49,65.49,0,0,0,4.18,51.33Z"/><path class="NEON-ROAD-STROKE-1" d="M873.62,452.72,692.71,127.34l-.14-.26a127.91,127.91,0,0,1-8.4-100.75A127.91,127.91,0,0,1,751-49.55l1.41-.67,28.89-10.29L801.41-4,775.59,5.2a69,69,0,0,0-30.08,93.63l180.6,324.84Z"/><path class="NEON-ROAD-STROKE-1" d="M896.75,439.89,721.4,116.13A103.47,103.47,0,0,1,773.65-28.69l43.6-17.7,1.5,3.71L775.16-25a99.49,99.49,0,0,0-50.24,139.23L900.28,438Z"/><rect class="NEON-ROAD-STROKE-1" x="771.07" y="252.4" width="3.03" height="45.05" transform="translate(-35.78 412.8) rotate(-29.27)"/><rect class="NEON-ROAD-STROKE-1" x="779.8" y="285.81" width="3.03" height="9.36" transform="translate(-42.28 419.05) rotate(-29.27)"/><rect class="NEON-ROAD-STROKE-1" x="765.2" y="253.93" width="3.03" height="21.02" transform="translate(-31.4 408.62) rotate(-29.27)"/><rect class="NEON-ROAD-STROKE-1" x="775.33" y="129.77" width="3.03" height="45.05" transform="translate(24.72 399.25) rotate(-29.27)"/><rect class="NEON-ROAD-STROKE-1" x="784.05" y="163.18" width="3.03" height="9.36" transform="translate(18.22 405.51) rotate(-29.27)"/><rect class="NEON-ROAD-STROKE-1" x="769.45" y="131.3" width="3.03" height="21.02" transform="translate(29.09 395.03) rotate(-29.27)"/><rect class="NEON-ROAD-STROKE-1" x="677.05" y="31.36" width="2.96" height="22.24" transform="translate(1340.72 196.45) rotate(-170.49)"/><path class="NEON-ROAD-STROKE-13" d="M805.24-2.17,776.78,8A65.43,65.43,0,0,0,752,29.83L696.44-5.95a130.91,130.91,0,0,1,53.24-46.3l1.56-.75L783.1-64.34Z"/><polygon class="NEON-ROAD-STROKE-11" points="732.76 205.9 760.25 256.01 818.28 223.07 792.02 179.09 732.76 205.9"/><path class="NEON-ROAD-STROKE-5" d="M190.07,147.28h0a2.53,2.53,0,0,1,3.08,1.81l18.58,71.1a2.53,2.53,0,0,1-1.81,3.08h0a2.52,2.52,0,0,1-3.08-1.81l-18.58-71.09A2.52,2.52,0,0,1,190.07,147.28Z"/><path class="NEON-ROAD-STROKE-7" d="M201.83,192.29h0a2.53,2.53,0,0,1,3.08,1.81l7.8,29.84A2.54,2.54,0,0,1,210.9,227h0a2.53,2.53,0,0,1-3.08-1.81L200,195.38A2.54,2.54,0,0,1,201.83,192.29Z"/><path class="NEON-ROAD-STROKE-1" d="M207.25,213h0a2.53,2.53,0,0,1,3.08,1.81l2.38,9.1A2.54,2.54,0,0,1,210.9,227h0a2.53,2.53,0,0,1-3.08-1.81l-2.38-9.1A2.54,2.54,0,0,1,207.25,213Z"/><path class="NEON-ROAD-STROKE-5" d="M83.93,305h0a2.25,2.25,0,0,1-1.64,2.74L18.7,323.7A2.26,2.26,0,0,1,16,322.06h0a2.27,2.27,0,0,1,1.64-2.74l63.6-15.94A2.25,2.25,0,0,1,83.93,305Z"/><path class="NEON-ROAD-STROKE-7" d="M43.67,315.11h0A2.25,2.25,0,0,1,42,317.85l-26.69,6.69a2.25,2.25,0,0,1-2.73-1.64h0a2.24,2.24,0,0,1,1.64-2.73l26.69-6.7A2.25,2.25,0,0,1,43.67,315.11Z"/><path class="NEON-ROAD-STROKE-1" d="M25.12,319.76h0a2.26,2.26,0,0,1-1.64,2.74l-8.14,2a2.25,2.25,0,0,1-2.73-1.64h0a2.24,2.24,0,0,1,1.64-2.73l8.14-2.05A2.26,2.26,0,0,1,25.12,319.76Z"/><path class="NEON-ROAD-STROKE-5" d="M878.65,119.27h0a2.27,2.27,0,0,1,1.58-2.78l63.21-17.38a2.27,2.27,0,0,1,2.78,1.58h0a2.26,2.26,0,0,1-1.58,2.77l-63.22,17.39A2.26,2.26,0,0,1,878.65,119.27Z"/><path class="NEON-ROAD-STROKE-7" d="M918.67,108.26h0a2.26,2.26,0,0,1,1.58-2.77l26.53-7.3a2.26,2.26,0,0,1,2.77,1.58h0a2.25,2.25,0,0,1-1.57,2.77l-26.53,7.3A2.26,2.26,0,0,1,918.67,108.26Z"/><path class="NEON-ROAD-STROKE-1" d="M937.11,103.19h0a2.26,2.26,0,0,1,1.58-2.77l8.09-2.23a2.26,2.26,0,0,1,2.77,1.58h0a2.25,2.25,0,0,1-1.57,2.77l-8.09,2.23A2.26,2.26,0,0,1,937.11,103.19Z"/><polygon class="NEON-ROAD-STROKE-8" points="177.87 147.02 226.18 143.32 222.04 126.05 173.13 128.13 177.87 147.02"/><polygon class="NEON-ROAD-STROKE-8" points="239.95 385.42 286.35 372.8 283.07 360.02 235.92 369.76 239.95 385.42"/><polygon class="NEON-ROAD-STROKE-1" points="828.2 215.96 797.27 158.96 1000 106.32 1000 168.29 828.2 215.96"/><polygon class="NEON-ROAD-STROKE-1" points="823.14 164.58 842.89 203 1000.75 158.36 1000.04 116.49 823.14 164.58"/><rect class="NEON-ROAD-STROKE-1" x="890.91" y="168.98" width="12.6" height="11.61" transform="translate(-14.4 241.87) rotate(-15.23)"/><rect class="NEON-ROAD-STROKE-1" x="905.91" y="164.89" width="12.6" height="11.61" transform="matrix(0.96, -0.26, 0.26, 0.96, -12.8, 245.67)"/><rect class="NEON-ROAD-STROKE-1" x="923.03" y="159.84" width="67.64" height="4.03" transform="translate(-8.91 257.09) rotate(-15.23)"/><polygon class="NEON-ROAD-STROKE-1" points="923.69 168.8 935.41 165.61 936.55 169.48 924.75 172.69 923.69 168.8"/><polygon class="NEON-ROAD-STROKE-1" points="959.88 158.94 961.25 162.75 990.02 154.92 988.96 151.03 959.88 158.94"/><polygon class="NEON-ROAD-STROKE-1" points="797.27 158.96 796 156.67 877.47 136.14 876.45 130.34 931.56 115.77 933.44 120.27 1000 103.08 1000 106.32 797.27 158.96"/><polygon class="NEON-ROAD-STROKE-7" points="1000 106.32 1000 88.13 791.04 143.96 797.27 158.96 1000 106.32"/><polygon class="NEON-ROAD-STROKE-1" points="828.2 215.96 830.17 222.34 957.22 187 956.86 183.12 1000 170.95 1000 168.29 828.2 215.96"/><polygon class="NEON-ROAD-STROKE-1" points="828.2 215.96 830.17 222.34 894.62 204.41 892.27 198.18 828.2 215.96"/><polygon class="NEON-ROAD-STROKE-1" points="796 156.67 830.75 223.02 831.84 214.95 801.25 157.95 796 156.67"/><polygon class="NEON-ROAD-STROKE-1" points="931.56 115.77 934.14 123.42 960.85 116.49 956.86 108.65 931.56 115.77"/><polygon class="NEON-ROAD-STROKE-5" points="1016.81 172.19 1021.86 182.12 837.09 237.15 830.75 223.02 1016.81 172.19"/><path class="NEON-ROAD-STROKE-5" d="M900.44,246.31h0a2,2,0,0,1,1.39-2.43l55.49-15.08a2,2,0,0,1,2.43,1.39h0a2,2,0,0,1-1.39,2.43L902.87,247.7A2,2,0,0,1,900.44,246.31Z"/><path class="NEON-ROAD-STROKE-7" d="M935.57,236.76h0a2,2,0,0,1,1.39-2.43L960.25,228a2,2,0,0,1,2.43,1.39h0a2,2,0,0,1-1.39,2.43L938,238.15A2,2,0,0,1,935.57,236.76Z"/><path class="NEON-ROAD-STROKE-1" d="M951.76,232.36h0a2,2,0,0,1,1.39-2.43l7.1-1.93a2,2,0,0,1,2.43,1.39h0a2,2,0,0,1-1.39,2.43l-7.1,1.93A2,2,0,0,1,951.76,232.36Z"/><polygon class="NEON-ROAD-STROKE-5" points="881.86 269.28 877.01 248.34 1061.67 197.69 1068.89 222.17 881.86 269.28"/><polygon class="NEON-ROAD-STROKE-1" points="930.19 400.5 874 302.06 884.5 271.64 1000 241.01 1000 400 930.19 400.5"/><polygon class="NEON-ROAD-STROKE-1" points="917.57 348.91 889.45 301.77 897.79 278.86 950.45 266.61 917.57 348.91"/><polygon class="NEON-ROAD-STROKE-1" points="917.57 348.91 915.83 353.5 885.25 301.49 894.88 275.36 897.79 278.86 889.45 301.77 917.57 348.91"/><polygon class="NEON-ROAD-STROKE-1" points="950.45 266.61 953.51 261.43 894.88 275.36 897.79 278.86 950.45 266.61"/><polygon class="NEON-ROAD-STROKE-1" points="885.25 301.49 889.45 301.77 897.79 278.86 894.88 275.36 885.25 301.49"/><polygon class="NEON-ROAD-STROKE-1" points="904.48 334.19 908.15 333.12 917.57 348.91 915.83 353.5 904.48 334.19"/><polygon class="NEON-ROAD-STROKE-1" points="874 302.06 870.5 302.06 881.79 269.06 1000 238.31 1000 241.01 884.5 271.64 874 302.06"/><polygon class="NEON-ROAD-STROKE-1" points="884.5 271.64 881.79 269.06 870.5 302.06 874 302.06 884.5 271.64"/><polygon class="NEON-ROAD-STROKE-1" points="974.78 247.7 973.66 245.16 1000 238.31 1000 241.01 974.78 247.7"/><polygon class="NEON-ROAD-STROKE-1" points="951.13 400.33 933.44 370.89 973.41 258.31 1000.76 251.77 1000 400 951.13 400.33"/><polygon class="NEON-ROAD-STROKE-1" points="933.44 370.89 928.58 371.99 970.84 254.88 973.41 258.31 933.44 370.89"/><polygon class="NEON-ROAD-STROKE-1" points="970.84 254.88 1000 247.7 1000.76 251.77 973.41 258.31 970.84 254.88"/><polygon class="NEON-ROAD-STROKE-1" points="948.99 327.12 945.44 325.27 928.58 371.99 933.44 370.89 948.99 327.12"/><polygon class="NEON-ROAD-STROKE-1" points="870.5 302.06 926.3 400.83 930.19 400.5 874 302.06 870.5 302.06"/><polygon class="NEON-ROAD-STROKE-1" points="870.5 302.06 891.36 339.09 894.88 338 874 302.06 870.5 302.06"/><rect class="NEON-ROAD-STROKE-1" x="947.21" y="354.89" width="19.45" height="17.94" transform="translate(278.43 1130.52) rotate(-69.31)"/><rect class="NEON-ROAD-STROKE-1" x="955.7" y="332.42" width="19.45" height="17.94" transform="translate(304.94 1123.92) rotate(-69.31)"/><polygon class="NEON-ROAD-STROKE-1" points="0 57.77 110.67 53.33 134.81 33.67 127.67 0 0 0 0 57.77"/><polygon class="NEON-ROAD-STROKE-1" points="0 57.77 0 62.09 111.45 57.71 110.67 53.33 0 57.77"/><polygon class="NEON-ROAD-STROKE-1" points="134.81 33.67 138.74 35.13 111.45 57.71 110.67 53.33 134.81 33.67"/><polygon class="NEON-ROAD-STROKE-1" points="127.67 0 130.88 0 138.74 35.13 134.81 33.67 127.67 0"/><polygon class="NEON-ROAD-STROKE-7" points="134.81 33.67 148.25 38.7 113.75 67.63 110.67 53.33 134.81 33.67"/><rect class="NEON-ROAD-STROKE-1" x="27.28" y="26.3" width="58.52" height="21.7" transform="translate(114.2 72.52) rotate(178.22)"/><rect class="NEON-ROAD-STROKE-1" x="30.65" y="28.58" width="51.78" height="17.13" transform="translate(114.2 72.52) rotate(178.22)"/><rect class="NEON-ROAD-STROKE-1" x="32.61" y="33.88" width="13.71" height="11.19" transform="translate(80.13 77.7) rotate(178.22)"/><polygon class="NEON-ROAD-STROKE-1" points="27.63 48.9 26.64 50.65 86.58 48.9 86.11 47.08 27.63 48.9"/></g><rect class="NEON-ROAD-STROKE-1" width="1000" height="400"/></g></g></svg>