<svg xmlns="http://www.w3.org/2000/svg" viewBox="0 0 1795.42 261.7"><defs><style>.ACHIEVE-TEXT-1{fill:#caf9f0;stroke:#101240;stroke-linecap:round;stroke-linejoin:round;stroke-width:13px;opacity:0.88;}</style></defs><title>Achieve-Text_1</title><g id="Layer_2" data-name="Layer 2"><g id="Layer_3" data-name="Layer 3"><g id="Achieve-Text"><path id="Achieve-A" class="ACHIEVE-TEXT-1" d="M149.27,10.21,224.8,251.49H164.05l-14.86-49.67h-78L56.06,251.49H6.5L83.83,10.21ZM84.74,157.27h51.12L110.52,72.61Z"/><path id="Achieve-C" class="ACHIEVE-TEXT-1" d="M504,100l-59.21,3.72Q443.59,52.63,405,52.63q-44.3,0-44.29,78.66,0,45.44,12.05,61.6t33.65,16.17q35.06,0,42.86-45.6L504,166.82q-5.3,43.31-32.25,65.84t-66,22.54q-47.91,0-77.86-33.06t-30-91.38q0-54.61,29-89.44T406.12,6.5Q493.09,6.5,504,100Z"/><path id="Achieve-H" class="ACHIEVE-TEXT-1" d="M789.48,10.21V251.49H734V152h-75.3v99.52H603.17V10.21h55.51v94H734v-94Z"/><path id="Achieve-I" class="ACHIEVE-TEXT-1" d="M960.9,10.21V251.49H904.52V10.21Z"/><path id="Achieve-E" class="ACHIEVE-TEXT-1" d="M1248.28,56.17H1133.39v49.49h90.32v45.43h-90.32v52.67h114.89v47.73H1075.94V10.21h172.34Z"/><path id="Achieve-V" class="ACHIEVE-TEXT-1" d="M1528.24,10.21l-72.89,241.28H1394.6L1322.14,10.21h60.17l48.27,172.52,50.27-172.52Z"/><path id="Achieve-E-2" class="ACHIEVE-TEXT-1" d="M1788.92,56.17H1674v49.49h90.33v45.43H1674v52.67h114.89v47.73H1616.59V10.21h172.33Z"/></g></g></g></svg>